<svg width="85" height="85" viewBox="0 0 85 85" fill="none" xmlns="http://www.w3.org/2000/svg">
<g style="mix-blend-mode:multiply">
<path d="M30 49H24V74.4477C24 75.1289 23.7682 75.7898 23.3426 76.3217L23.2255 76.4681C21.592 78.5099 18.4709 78.4612 16.902 76.3694L15.5 74.5L11 79L11.6283 79.6283C13.1992 81.1992 15.013 82.5065 17 83.5H0.5V1H83V62L78 49H71L58.5 83.5H50L50.5726 83.2397C53.7147 81.8115 56.1202 79.1395 57.2116 75.8652C58.2977 72.6068 57.3494 69.0144 54.7964 66.7167L54 66L53.32 65.456C52.11 64.488 50.8012 63.6506 49.4154 62.9577L44.406 60.453C42.875 59.6875 42.3816 57.7406 43.3632 56.3383C44.2624 55.0538 46.0403 54.7566 47.3083 55.6788L50.5 58L55.5 53.5L54.2257 52.2257C50.3331 48.3331 44.211 47.788 39.6919 50.9317L38.9672 51.4358C37.0928 52.7398 35.917 54.8287 35.7745 57.1075L35.7212 57.9611C35.5787 60.2415 36.2742 62.4954 37.6769 64.2989C38.549 65.4202 39.6492 66.3437 40.9046 67.0083L47.5 70.5L48.2674 70.9063C51.2145 72.4665 50.8892 76.7888 47.7418 77.8904L47.6277 77.9303C46.5938 78.2922 45.4538 78.1879 44.5027 77.6444C43.1735 76.8849 41.9515 75.9515 40.8689 74.8689L39.5 73.5L34.5 77.5C36.48 79.81 38.9018 81.7009 41.6231 83.0616L42.5 83.5H24.5C28.0145 82.6214 30.4612 79.4383 30.4063 75.816L30 49Z" fill="#00FFFF" stroke="#00FFFF"/>
<path d="M79 70.5H70.5L74.5 57.5L79 70.5Z" fill="#00FFFF" stroke="#00FFFF"/>
<path d="M68.5 76.5L66 84H83.5L81 76.5H68.5Z" fill="#00FFFF" stroke="#00FFFF"/>
</g>
</svg>
