<svg xmlns="http://www.w3.org/2000/svg" id="Layer_1" x="0" y="0" version="1.1" viewBox="0 0 155.013 216.973" xml:space="preserve">
  <style>
    .st0{fill:#fff}
  </style>
  <path d="M154.159 4.382l-.491-.02-1.438-.057-2.357-.086-1.526-.03-1.766.033-2.007.159-2.254.34-2.508.565-1.355.382-1.425.457-1.497.531-1.574.605-1.649.676-1.728.74-1.805.797-1.882.844-1.957.879-2.027.899-2.09.903-2.148.892-2.193.885-2.213.889-2.214.896-2.205.889-2.186.866-2.169.816-2.154.738-2.145.633-2.139.503-2.137.354-2.134.189-2.13.016-2.141-.178-2.161-.39-2.182-.61-2.199-.825-2.207-1.025-2.213-1.194-1.479-.878-1.493-.949-1.508-1.014-1.52-1.058-1.527-1.082-1.526-1.089-1.518-1.077-1.504-1.052-1.488-1.019-1.47-.975-1.448-.923-1.426-.863-1.404-.802-1.382-.736-1.356-.66-1.329-.582-1.301-.498-1.27-.415-1.241-.333-1.213-.258-1.186-.188-1.162-.119-1.137-.054-1.112.005-1.09.058-1.067.105-1.046.143-1.027.174-1.006.201-.986.224-.966.241-.947.255-.929.268-.912.278-.896.288-.882.296-.867.302-.855.307-.842.31-.83.313-.818.313-.807.314-.796.312-.786.31-.777.305-.768.301-.758.295-.748.289-.738.281-.729.272-1.429.515-1.382.478-1.323.443-1.26.407-1.197.367-1.13.328-1.061.288-.988.249-.912.214-.833.178-1.413.268-1.048.169-.65.091-.222.029.022-1.14.223-.027.652-.085 1.05-.159 1.417-.254.835-.17.915-.203.99-.239 1.062-.276 1.133-.314 1.199-.354 1.263-.391 1.326-.428 1.385-.462 1.44-.494.735-.261.745-.271.754-.278.765-.285.774-.29.784-.295.795-.299.804-.301.815-.303.826-.304.839-.302.851-.3.863-.297.877-.292.89-.286.905-.278.921-.269.938-.259.956-.246.974-.233.994-.216 1.014-.193 1.035-.166 1.054-.135 1.075-.097L46.824 0l1.119.002 1.142.06 1.168.125 1.192.191 1.218.262 1.245.334 1.273.413 1.304.495 1.331.574 1.355.648 1.378.718 1.398.779 1.416.831 1.436.884 1.455.933 1.471.972 1.486 1.002 1.499 1.023 1.506 1.034 1.507 1.025 1.498.998 1.486.955 1.472.9 2.224 1.267 2.218 1.125 2.208.949 2.196.745 2.179.529 2.162.311 2.153.103 2.156-.084 2.165-.258 2.173-.42 2.18-.562 2.192-.681 2.207-.774 2.225-.839 2.242-.874 2.252-.891 2.252-.895 2.232-.895 2.19-.906 2.133-.92 2.071-.918 2-.9 1.926-.866 1.848-.818 1.771-.76 1.693-.693 1.615-.621 1.538-.545 1.465-.469 1.393-.391 2.583-.577 2.322-.344 2.065-.159 1.812-.034 1.565.026 2.415.079 1.473.053.502.018-.016 1.113z" class="st0"/>
  <path d="M153.48 10.785l-.526-.034-1.54-.101-1.135-.058-1.372-.022-1.608.056-1.845.195-2.084.387-2.339.608-1.272.396-1.346.461-1.423.523-1.501.585-1.58.641-1.662.695-1.744.74-1.83.777-1.914.803-1.995.818-2.071.819-2.133.827-2.163.863-2.169.911-2.157.95-2.135.966-2.113.953-2.095.911-2.085.841-2.087.747-2.102.633-2.127.503-2.164.357-2.219.188-2.281.001-2.342-.204-2.392-.428-2.418-.662-1.574-.562-1.577-.675-1.589-.801-1.61-.935-1.626-1.07-1.64-1.196-1.647-1.297-1.649-1.37-1.648-1.408-1.642-1.411-1.627-1.382-1.6-1.323-1.575-1.262-1.548-1.197-1.515-1.118-1.48-1.027-1.44-.925-1.398-.816-1.357-.709-1.319-.605-1.283-.505-1.249-.409-1.216-.32-1.184-.235-1.154-.156-1.126-.081-1.1-.014-1.075.049-1.048.104-1.025.149-1.001.188-.979.222-.958.25-.938.27-.919.288-.899.303-.88.316-.864.327-.847.337-.832.345-.818.351-.806.358-.794.361-.783.364-.773.366-.764.365-.755.365-.747.361-.738.359-.731.355-.723.349-.715.343-.707.335-.699.326-1.369.626-1.329.584-1.288.537-1.238.489-1.174.446-1.107.402-1.037.357-.965.314-.89.271-.813.23-1.379.353-1.023.231-.635.128-.217.041-.028-1.19.218-.039.638-.12 1.027-.217 1.385-.336.816-.22.894-.259.97-.3 1.041-.344 1.112-.386 1.18-.43 1.246-.473 1.301-.517 1.343-.565 1.382-.607.705-.317.714-.325.722-.333.73-.34.737-.345.745-.35.754-.353.763-.355.772-.356.782-.357.792-.355.802-.353.815-.349.827-.343.842-.336.857-.327.873-.317.89-.306.908-.294.928-.278.948-.262.968-.241.988-.213 1.01-.18 1.033-.141 1.056-.096 1.082-.039 1.108.022 1.133.089 1.161.162 1.19.24 1.221.324 1.253.411 1.285.504 1.322.603 1.357.7 1.394.8 1.433.903 1.471.999 1.504 1.084 1.533 1.156 1.559 1.219 1.581 1.269 1.604 1.32 1.62 1.352 1.624 1.35 1.624 1.315 1.619 1.25 1.609 1.156 1.595 1.041 1.575.911 1.554.779 1.549.674 1.21.456 1.209.394 2.407.604 2.375.363 2.325.133 2.272-.076 2.222-.265 2.186-.431 2.162-.577 2.148-.708 2.144-.818 2.151-.901 2.168-.955 2.191-.978 2.214-.973 2.229-.939 2.226-.898 2.199-.867 2.139-.861 2.064-.861 1.98-.846 1.896-.818 1.808-.779 1.72-.729 1.635-.67 1.55-.607 1.467-.541 1.388-.473 1.311-.402 2.409-.605 2.147-.369 1.898-.175 1.653-.042 1.409.036 1.164.062 1.575.096.538.032-.211 1.267z" class="st0"/>
  <path d="M151.924 17.111l-.586-.03-1.699-.021-1.247.051-1.508.151-1.77.291-2.033.463-2.304.654-1.256.403-1.327.458-1.401.509-1.473.556-1.547.597-1.62.631-1.694.654-1.769.668-1.843.671-1.918.67-1.97.699-1.995.758-2.007.819-2.007.868-2.003.895-1.996.9-1.994.882-1.994.839-2.003.773-2.02.689-2.055.593-2.113.481-2.2.35-2.309.209-2.432.056-2.551-.107-1.635-.16-1.669-.247-1.703-.347-1.735-.468-1.774-.621-1.803-.794-1.819-.98-1.822-1.17-1.818-1.344-1.805-1.483-1.784-1.584-1.763-1.646-1.745-1.671-1.727-1.654-1.703-1.598-1.664-1.507-1.617-1.393-1.569-1.275-1.52-1.15-1.469-1.022-1.417-.891-1.366-.757-1.315-.628-1.269-.509-1.23-.402-1.193-.302-1.159-.209-1.124-.122-1.092-.044-1.064.03-1.035.093-1.008.146-.981.19-.955.231-.931.263-.91.289-.888.308-.87.325-.85.341-.833.354-.816.365-.8.374-.786.383-.774.389-.761.393-.751.397-.741.399-.733.399-.724.398-.715.397-.706.396-.698.393-.689.389-.681.385-.675.378-.667.372-.66.366-1.297.705-1.266.668-1.232.626-1.195.579-1.151.528-1.091.479-1.024.432-.953.384-.88.337-.804.291-1.363.454-1.011.304-.628.173-.215.056-.093-1.219.215-.053.628-.161 1.012-.285 1.365-.43.805-.276.881-.322.955-.368 1.026-.415 1.093-.462 1.157-.508 1.203-.558 1.242-.608 1.277-.65 1.312-.689.668-.358.677-.366.684-.372.692-.378.699-.383.708-.388.715-.39.725-.392.734-.393.743-.393.752-.392.761-.391.772-.387.783-.383.796-.376.81-.368.826-.357.843-.346.861-.332.88-.317.9-.3.92-.28.942-.255.966-.221.991-.182 1.017-.137 1.044-.084 1.072-.021 1.1.051 1.131.13 1.164.213 1.198.305 1.234.402 1.272.508 1.314.62 1.362.746 1.413.874 1.463 1.001L60.38 13.4l1.557 1.239 1.6 1.348 1.643 1.45 1.682 1.541 1.707 1.598 1.722 1.618 1.736 1.599 1.749 1.537 1.764 1.446 1.775 1.32 1.776 1.166 1.768.991 1.752.813 1.724.644 1.694.495 1.672.374 1.647.272 2.418.247 2.334.079 2.24-.073 2.145-.213 2.058-.347 1.985-.47 1.937-.573 1.914-.664 1.9-.741 1.898-.804 1.901-.847 1.909-.869 1.92-.871 1.93-.851 1.934-.812 1.93-.761 1.913-.705 1.871-.666 1.806-.661 1.738-.661 1.668-.651 1.599-.632 1.533-.606 1.465-.571 1.4-.532 1.333-.489 1.267-.444 1.204-.396 2.222-.651 1.982-.474 1.751-.311 1.526-.173 1.302-.068 1.08-.001 1.471.062.507.036-.415 1.424z" class="st0"/>
  <path d="M149.699 23.565l-.568.014-1.653.1-1.216.14-1.467.247-1.715.381-1.957.53-2.198.683-1.188.395-1.245.428-1.304.456-1.36.476-1.414.491-1.468.5-1.52.497-1.571.49-1.601.509-1.608.555-1.608.599-1.605.635-1.604.66-1.607.677-1.614.683-1.627.678-1.645.664-1.671.638-1.7.602-1.735.553-1.778.495-1.834.43-1.914.346-2.014.257-2.133.168-2.272.084-1.527.008-1.595-.034-1.666-.082-1.741-.144-1.812-.216-1.896-.318-1.979-.453-2.039-.621-2.066-.819-2.067-1.038-1.024-.606-1.014-.668-1.003-.725-.992-.78-.981-.829-.972-.871-.963-.902-.952-.927-.94-.944-.93-.951-1.826-1.889-1.788-1.829-1.75-1.739-1.695-1.608-1.632-1.455-1.567-1.294-1.503-1.137-1.439-.977-1.381-.828-1.324-.687-1.273-.55-1.222-.422-1.178-.305-1.139-.203-1.102-.109-1.066-.023-1.031.055-.998.122-.969.175-.939.221-.911.263-.885.294-.862.318-.84.337-.821.352-.802.367-.785.377-.767.387-.752.394-.737.399-.726.403-.713.407-.704.409-.694.41-.685.411-.677.412-.67.412-.663.41-.657.408-.652.406-.647.403-.641.399-.637.396-.633.391-1.251.763-1.228.735-1.204.7-1.173.659-1.137.614-1.087.566-1.021.516-.952.465-.88.414-.805.362-1.366.578-1.015.396-.63.231-.216.076-.188-1.229.216-.07.629-.216 1.012-.371 1.364-.544.803-.342.88-.394.952-.444 1.021-.494 1.088-.544 1.138-.592 1.176-.64 1.208-.682 1.234-.72 1.26-.75.638-.386.643-.391.648-.395.653-.4.66-.402.666-.406.673-.408.68-.41.689-.411.697-.411.706-.41.717-.409.726-.406.738-.402.751-.397.764-.39.78-.382.796-.372.814-.361.831-.347.851-.33.872-.312.896-.288.922-.257.95-.216.979-.17 1.008-.119 1.039-.053 1.072.024 1.107.109 1.143.202 1.18.3 1.222.411 1.269.535 1.321.668 1.375.807 1.432.95 1.493 1.102 1.553 1.252 1.615 1.405 1.676 1.553 1.731 1.682 1.768 1.774 1.797 1.827.913.924.921.92.932.91.942.891.951.863.96.831.966.789.975.74.984.686.992.63 2.001 1.091 2.003.876 1.981.677 1.933.504 1.864.358 1.793.246 1.727.16 1.66.093 1.596.037 2.42-.03 2.278-.129 2.147-.227 2.036-.327 1.948-.425 1.883-.51 1.84-.581 1.805-.641 1.775-.687 1.754-.721 1.739-.739 1.727-.744 1.717-.732 1.713-.71 1.712-.677 1.713-.634 1.707-.584 1.69-.541 1.643-.536 1.585-.544 1.526-.539 1.468-.528 1.409-.51 1.347-.482 1.285-.451 1.222-.413 2.257-.7 2.005-.533 1.753-.369 1.499-.228 1.24-.121 1.687-.079.579-.007-.616 1.626z" class="st0"/>
  <path d="M146.973 29.982l-.667.06-1.935.252-1.412.253-1.692.373-1.957.501-2.211.631-1.195.361-1.252.384-1.305.399-1.357.407-1.402.411-1.426.433-1.43.478-1.423.521-1.416.556-1.407.578-1.397.586-1.388.582-1.386.568-1.392.546-1.406.518-1.428.483-1.463.447-1.512.416-1.571.382-1.632.346-1.128.212-1.167.189-1.208.16-1.255.131-1.309.1-1.369.072-1.285.041-1.352.016-1.433-.013-1.525-.042-1.623-.074-1.73-.112-1.836-.153-1.953-.208-2.086-.287-2.201-.395-2.283-.532-1.157-.329-1.16-.378-1.159-.436-1.152-.497-1.14-.566-1.122-.635-1.103-.705-1.081-.775-1.059-.839-1.037-.898-1.019-.95-1.004-.987-.99-1.014-.973-1.029-.958-1.034-.945-1.027-.929-1.01-.917-.983-1.785-1.86-1.714-1.692-1.642-1.517-1.566-1.335-1.489-1.15-1.417-.972-1.347-.805-1.287-.653-1.231-.513-1.178-.381-1.128-.258-1.083-.15-1.041-.052-1.003.035-.966.11-.934.166-.904.216-.875.259-.847.296-.823.322-.8.342-.779.359-.76.372-.744.384-.726.391-.71.397-.696.402-.683.403-.672.405-.663.404-.655.404-.649.404-.646.404-.642.405-.639.405-.637.407-.634.407-.631.408-.631.408-.628.407-.625.406-1.242.805-1.225.789-1.206.766-1.178.736-1.142.698-1.087.654-1.023.605-.955.553-.883.498-.81.442-1.378.718-1.026.502-.855.398-.301-1.211.218-.093.636-.278 1.023-.473 1.375-.678.808-.42.882-.474.955-.528 1.022-.581 1.087-.629 1.139-.675 1.174-.714 1.202-.749 1.222-.774 1.24-.795.625-.403.628-.406.631-.406.634-.409.635-.409.64-.409.643-.408.648-.408.652-.408.657-.406.662-.406.671-.406.681-.405.692-.405.706-.402.72-.399.736-.392.754-.385.771-.373.789-.36.811-.345.832-.325.858-.301.885-.266.914-.224.943-.174.975-.119 1.01-.046 1.047.038 1.086.131 1.128.235 1.176.352 1.227.481 1.281.617 1.339.762 1.401.919 1.473 1.091 1.545 1.267 1.62 1.447 1.69 1.62 1.757 1.779 1.815 1.917.928.997.94 1.011.953 1.016.967 1.009.982.992.995.966 1.009.928 1.025.88 1.043.822 1.062.759 1.082.693 1.098.626 1.112.56 1.123.494 1.128.432 1.129.374 2.232.606 2.169.453 2.074.33 1.956.234 1.845.164 1.747.114 1.648.071 1.553.035 1.467.003 1.391-.027 2.024-.09 1.895-.155 1.783-.225 1.696-.287 1.627-.337 1.569-.376 1.519-.408 1.474-.437 1.433-.467 1.403-.495 1.38-.521 1.365-.54 1.358-.555 1.359-.564 1.362-.565 1.37-.556 1.375-.536 1.382-.508 1.387-.47 1.386-.429 1.368-.406 1.33-.406 1.286-.402 1.24-.394 1.191-.379 1.141-.355 2.128-.634 1.911-.525 1.685-.403 1.45-.291 1.204-.19 1.644-.182.565-.042-.788 1.77z" class="st0"/>
  <path d="M144.133 36.162l-.653.07-1.885.268-1.366.248-1.622.345-1.857.443-2.068.528-1.104.29-1.137.311-1.158.347-1.17.39-1.172.437-1.164.479-1.154.51-1.141.531-1.127.54-1.118.536-1.108.521-1.101.491-1.1.451-1.108.407-1.125.36-1.151.31-1.189.262-1.237.219-1.296.177-1.366.145-1.445.119-1.526.099-1.616.067-1.717.02-1.099-.013-1.154-.036-1.221-.061-1.295-.085-1.38-.104-1.474-.121-1.579-.135-1.694-.151-1.812-.167-1.946-.192-2.111-.236-2.271-.302-2.41-.395-1.244-.242-1.262-.28-1.271-.326-1.271-.376-1.263-.432-1.247-.493-1.225-.559-1.2-.63-1.169-.708-1.136-.785-1.103-.858-1.072-.926-1.042-.983-1.019-1.026-1.001-1.054-.981-1.066-.962-1.067-.945-1.055-.928-1.029-.91-.996-1.762-1.858-1.67-1.647-1.584-1.444-1.501-1.252-1.417-1.056-1.334-.867-1.261-.697-1.195-.546-1.136-.406-1.081-.281-1.032-.169-.987-.068-.946.018-.91.093-.877.152-.847.2-.821.243-.794.28-.772.306-.751.326-.734.341-.719.354-.704.364-.691.373-.679.38-.669.383-.662.388-.657.389-.652.391-.651.392-.65.393-.648.391-.647.392-.647.393-.647.394-.647.398-.645.403-.645.407-.643.411-1.279.831-1.262.835-1.238.828-1.203.81-1.147.78-1.086.74-1.022.693-1.294.867-1.158.757-1.867 1.165-1.592.937-.401-1.192 1.08-.59 1.284-.737 1.712-1.041.886-.558.955-.615 1.023-.667 1.086-.715 1.148-.756 1.196-.788 1.225-.81 1.247-.822 1.262-.825.636-.41.637-.408.638-.406.638-.402.639-.398.64-.396.64-.395.642-.395.644-.395.646-.397.649-.396.654-.397.66-.395.669-.393.68-.389.694-.383.708-.377.723-.367.739-.355.758-.339.778-.322.8-.298.827-.266.854-.226.883-.18.915-.126.949-.056.988.028 1.031.122 1.078.23 1.131.35 1.187.482 1.248.626 1.316.784 1.391.96 1.472 1.151 1.553 1.346 1.632 1.535 1.717 1.736 1.798 1.927.925 1.02.941 1.045.958 1.06.975 1.064.993 1.052 1.011 1.031 1.03.994 1.054.942 1.083.88 1.112.81 1.142.736 1.172.659 1.196.584 1.216.515 1.231.453 1.241.395 1.244.345 1.237.297 1.222.255 1.199.222 2.313.362 2.174.275 2.016.211 1.874.168 1.753.14 1.633.118 1.523.097 1.426.079 1.337.056 1.26.034 1.193.011 1.138-.008 1.779-.056 1.67-.111 1.575-.16 1.495-.19 1.421-.215 1.354-.244 1.296-.277 1.25-.315 1.216-.359 1.193-.4 1.18-.445 1.176-.484 1.18-.516 1.185-.536 1.194-.543 1.208-.54 1.219-.522 1.231-.494 1.237-.455 1.238-.408 1.232-.369 1.211-.339 1.173-.324 1.129-.31 2.106-.562 1.88-.465 1.637-.357 1.372-.248 1.888-.259.653-.067-.844 1.835z" class="st0"/>
  <path d="M141.665 42.048l-.616.061-1.763.221-1.263.204-1.485.288-1.669.388-1.804.526-.931.323-.939.366-.94.409-.935.448-.927.486-.917.522-.902.546-.887.558-.873.558-.862.543-.858.517-.863.479-.875.427-.9.369-.933.296-.974.219-1.025.139-1.082.064-1.144-.006-1.214-.066-1.287-.113-1.366-.143-1.446-.154-1.527-.154-.983-.101-1.02-.118-1.065-.14-1.113-.163-1.164-.182-1.223-.194-1.288-.205-1.359-.214-1.446-.221-1.552-.225-1.668-.226-1.787-.227-1.918-.229-2.077-.245-2.251-.278-2.42-.335-1.263-.196-1.293-.226-1.315-.263-1.327-.303-1.329-.351-1.323-.403-1.306-.464-1.282-.528-1.249-.598-1.211-.668-1.169-.74-1.127-.816-1.085-.886-1.045-.949-1.01-.998-.981-1.029-.959-1.042-.937-1.041-.916-1.03-.897-1.004-1.732-1.89-1.64-1.684-1.539-1.46-1.448-1.253-1.36-1.057-1.274-.871-1.197-.698-1.125-.541-1.066-.406-1.012-.288-.963-.182-.919-.086-.88-.003-.847.065-.821.12-.798.163-.776.203-.758.234-.742.26-.73.28-.719.295-.709.31-.701.322-.696.333-.693.343-.691.351-.692.359-.692.366-.694.373-.696.378-.697.383-.698.388-.699.392-.697.396-.696.402-.692.408-.687.414-1.354.847-1.315.867-1.259.878-1.487 1.086-1.393 1.049-1.295.988-1.193.911-1.086.822-.972.72-1.563 1.122-1.328.914-.465-1.217 1.122-.731 1.328-.902 1.763-1.25 1.027-.747 1.117-.822 1.202-.886 1.285-.937 1.492-1.063 1.261-.864 1.302-.858 1.327-.841.67-.411.672-.404.675-.4.677-.396.678-.393.677-.391.677-.387.675-.384.675-.381.675-.376.675-.372.675-.367.678-.361.682-.354.689-.346.698-.335.709-.323.721-.31.735-.293.75-.273.77-.246.792-.21.817-.168.843-.121.874-.062.909.013.951.099.997.2 1.048.313 1.104.438 1.166.576 1.239.739 1.32.919 1.406 1.113 1.49 1.309 1.58 1.514 1.679 1.739 1.769 1.939.914 1.025.933 1.048.953 1.058.975 1.056.997 1.04 1.023 1.007 1.056.955 1.093.892 1.133.819 1.174.742 1.211.666 1.247.595 1.276.527 1.299.461 1.313.403 1.318.349 1.313.302 1.3.263 1.278.227 1.248.196 2.391.327 2.226.27 2.053.231 1.896.209 1.771.205 1.65.202 1.536.196 1.434.187 1.349.175 1.271.16 1.201.142 1.141.125 1.085.101 1.037.08.997.064 1.547.079 1.464.062 1.38.043 1.302.018 1.229-.016 1.161-.063 1.103-.12 1.05-.183 1.009-.251.974-.315.949-.374.936-.429.93-.471.932-.506.94-.529.952-.538.966-.535.978-.521.99-.498 1.002-.466 1.009-.426 1.008-.385 1.003-.343.988-.3 1.893-.49 1.727-.381 1.523-.291 1.291-.212 1.795-.239.625-.067-.74 1.907z" class="st0"/>
  <path d="M140.053 47.794l-.571.065-1.615.242-1.136.229-1.298.345-1.413.498-1.479.683-.748.417-.746.472-.737.521-.724.565-.71.608-.697.648-.687.676-.685.694-.688.699-.703.688-.728.656-.762.601-.805.524-.857.424-.915.3-.976.153h-1.039l-1.106-.153-1.173-.293-1.24-.404-1.311-.483-1.382-.534-1.451-.555-1.523-.546-.977-.32-1.011-.309-1.047-.301-1.076-.301-1.104-.306-1.13-.311-1.157-.312-1.187-.312-1.224-.317-1.271-.32-1.327-.316-1.401-.309-1.499-.299-1.612-.287-1.734-.273-1.862-.264-2.015-.268-2.178-.281-2.334-.319-1.223-.185-1.253-.208-1.276-.235-1.291-.266-1.298-.306-1.298-.353-1.288-.405-1.269-.46-1.242-.52-1.209-.582-1.169-.643-1.124-.707-1.079-.768-1.033-.827-.987-.878-.948-.919-.912-.946-.887-.955-1.704-1.876-1.618-1.76-1.533-1.585-1.442-1.38-1.348-1.175-1.264-.993-1.185-.822-1.116-.667-1.054-.53-1.002-.409-.955-.301-.913-.202-.878-.116-.851-.045-.83.017-.812.066-.798.107-.789.141-.779.17-.772.196-.767.218-.765.236-.764.254-.766.269-.767.286-.77.302-.771.317-.774.333-.774.348-.775.362-.775.377-.774.389-.77.402-.752.417-.732.432-.712.442-.692.452-1.328.92-1.257.924-1.191.919-1.311 1.057-1.228 1.022-1.142.965-1.054.892-.96.806-.858.71-1.382 1.112-1.173.912-.498-1.328 1.334-1 1.566-1.219.97-.778 1.084-.881 1.189-.973 1.288-1.047 1.386-1.1 1.48-1.125 1.253-.901 1.321-.894 1.393-.877.725-.427.737-.415.743-.404.745-.395.745-.386.744-.378.744-.366.742-.355.74-.342.739-.331.737-.317.736-.304.735-.292.736-.276.739-.262.745-.244.753-.224.762-.201.772-.172.786-.137.804-.095.825-.044.848.016.879.09.918.176.962.276 1.012.388 1.067.511 1.131.654 1.203.812 1.282.986 1.37 1.175 1.464 1.383 1.563 1.6 1.651 1.793 1.737 1.934.902.993.924.992.951.975.987.94 1.027.892 1.073.834 1.12.768 1.163.7 1.206.633 1.245.567 1.275.504 1.299.443 1.314.387 1.319.337 1.316.291 1.304.252 1.284.221 1.257.196 2.404.333 2.243.281 2.079.258 1.915.254 1.776.26 1.654.269 1.54.273 1.44.277 1.36.284 1.294.287 1.237.282 1.191.275 1.151.264 1.115.254 1.08.243 1.046.232 1.011.224.975.225 1.52.38 1.443.388 1.368.379 1.293.341 1.222.274 1.152.183 1.085.073 1.019-.053.959-.178.902-.292.851-.393.808-.48.776-.547.752-.592.74-.619.736-.629.741-.625.753-.614.769-.593.786-.561.8-.521.808-.475.812-.426.813-.375 1.597-.61 1.511-.448 1.375-.315 1.191-.21 1.678-.227.591-.062-.451 2.06z" class="st0"/>
  <path d="M139.662 53.843l-.506.094-1.401.355-.959.338-1.072.495-1.147.688-1.181.92-.592.559-.585.628-.582.694-.579.751-.578.807-.582.86-.595.908-.615.936-.644.947-.684.923-.739.871-.806.782-.884.649-.97.473-1.058.265-1.145.028-1.225-.224-1.295-.468-1.353-.68-1.395-.841-1.429-.952-1.461-1.015-1.503-1.032-1.555-1.009-.987-.595-1.012-.569-1.038-.543-1.067-.51-1.099-.471-1.123-.431-1.137-.402-1.142-.383-1.139-.371-1.131-.371-1.126-.374-1.13-.377-1.149-.377-1.179-.379-1.229-.378-1.301-.371-1.398-.352-1.509-.33-1.634-.316-1.764-.301-1.898-.291-2.037-.303-2.167-.336-2.278-.4-1.17-.237-1.182-.269-1.189-.301-1.187-.338-1.179-.38-1.162-.424-1.138-.469-1.108-.516-1.073-.563-1.036-.613-1.956-1.36-1.794-1.504-1.641-1.591-1.532-1.588-1.448-1.499-1.373-1.36-1.305-1.199-1.239-1.045-1.179-.898-1.119-.757-1.067-.628-1.023-.513-.985-.41-.956-.319-.933-.239-.916-.17-.902-.109-.889-.055-.882-.012-.877.028-.876.063-.875.096-.876.126-.877.155-.878.185-.877.215-.872.248-.863.279-.85.309-.836.338-.817.367-.796.394-.773.42-.75.444-.729.462-.708.478-1.356.986-1.281 1.002-1.208 1.002-1.14.984-1.074.954-1.009.913-.946.868-1.09 1.004-.981.893-1.593 1.412-1.368 1.169-.497-1.546.881-.724 1.044-.883 1.388-1.207.807-.716.877-.783.943-.842 1.006-.888 1.068-.923 1.133-.95 1.199-.969 1.27-.969 1.344-.957.701-.467.721-.454.743-.44.764-.421.787-.398.807-.375.821-.354.831-.33.836-.307.836-.284.834-.262.833-.239.831-.214.83-.19.828-.166.828-.141.829-.115.833-.082.84-.046.85-.004.863.046.878.105.899.175.926.254.957.345.998.449 1.046.563 1.101.693 1.164.837 1.232.993 1.304 1.156 1.385 1.336 1.466 1.513 1.546 1.649 1.634 1.717 1.754 1.696.937.807.983.761 1.026.712 1.068.658 1.108.606 1.146.556 1.181.502 1.207.45 1.225.4 1.236.352 1.238.31 1.233.274 1.22.242 1.201.214 2.323.361 2.193.31 2.046.285 1.893.279 1.756.29 1.629.309 1.512.321 1.408.337 1.323.349 1.258.356 1.212.361 1.18.36 1.16.364 1.147.367 1.144.369 1.136.373 1.12.385 1.099.404 1.071.431 1.041.455 1.011.473.981.492 1.535.837 1.474.85 1.42.828 1.37.766 1.32.66 1.267.511 1.204.326 1.133.116 1.059-.092.982-.29.907-.466.837-.611.773-.72.721-.792.68-.834.65-.843.629-.831.619-.805.616-.771.617-.727.624-.675.63-.62.636-.559.642-.496 1.283-.82 1.242-.615 1.158-.437 1.028-.291 1.485-.296.532-.077.009 2.371z" class="st0"/>
  <path d="M140.593 60.616l-.453.147-1.241.536-.836.495-.929.715-.989.972-1.024 1.266-.521.759-.527.848-.536.933-.55 1.008-.57 1.076-.6 1.137-.641 1.175-.703 1.189-.785 1.165-.88 1.093-.986.965-1.104.771-1.232.508-1.363.185-1.483-.175-1.573-.539-1.627-.867-1.653-1.129-1.651-1.31-1.632-1.414-1.603-1.453-1.574-1.44-1.552-1.384-1.551-1.302-.954-.74-.977-.695-1.01-.648-1.057-.594-1.111-.534-1.158-.466-1.19-.394-1.205-.331-1.204-.286-1.185-.26-1.143-.261-1.087-.284-1.032-.317-.981-.359-.946-.4-.936-.433-.946-.462-.986-.478-1.061-.468-1.162-.444-1.285-.421-1.416-.397-1.55-.371-1.678-.35-1.793-.341-1.9-.363-1.982-.412-2.04-.483-2.068-.583-2.05-.697-1.996-.821-1.917-.954-1.807-1.085-1.683-1.192-1.55-1.264-1.424-1.299-1.334-1.279-1.283-1.203-1.244-1.098-1.209-.986-1.173-.873-1.144-.771-1.12-.677-1.096-.585-1.074-.496-1.056-.414-1.043-.343-1.031-.276-1.019-.212-1.005-.149-.991-.09-.978-.032-.961.026-.945.083-.926.138-.908.189-.889.239-.866.285-.844.33-.82.374-.795.412-.773.446-.75.473-.729.496-.708.516-.689.534-1.318 1.095-1.245 1.109-1.176 1.1-1.108 1.069-1.04 1.019-.974.958-.905.888-.836.81-1.442 1.369-1.095 1.005-.928.825-.439-1.911 1.141-1.006 1.338-1.218.827-.774.92-.875.891-.851.958-.913 1.023-.968 1.091-1.019 1.159-1.052 1.228-1.065 1.301-1.06.679-.518.699-.504.719-.488.741-.468.763-.444.786-.416.809-.384.833-.347.854-.31.873-.27.891-.229.906-.186.921-.142.933-.095.945-.047.955.002.96.048.964.093.966.14.972.191.982.25.998.321 1.018.401 1.039.487 1.065.58 1.098.685 1.138.798 1.18.92 1.232 1.055 1.28 1.185 1.331 1.301 1.398 1.393 1.5 1.422 1.64 1.373 1.789 1.274 1.925 1.135 2.041.975 2.135.825 2.188.683 2.193.555 2.151.449 2.068.377 1.957.33 1.846.315 1.726.33 1.597.347 1.464.365 1.342.384 1.23.405 1.143.421 1.082.427 1.043.419 1.028.401 1.035.379 1.061.354 1.1.329 1.127.326 1.152.332 1.17.35 1.169.387 1.151.443 1.127.501 1.101.556 1.069.607 1.035.654 1.007.694.979.73 1.553 1.244 1.53 1.286 1.523 1.291 1.523 1.248 1.518 1.148 1.503.981 1.469.748 1.413.464 1.332.154 1.233-.154 1.126-.435 1.021-.668.923-.848.828-.975.743-1.049.676-1.085.626-1.086.59-1.058.566-1.014.552-.951.542-.883.534-.81.531-.733.531-.658 1.058-1.1 1.027-.834.962-.603.865-.409 1.278-.441.466-.122.248 1.417.282 1.444z" class="st0"/>
  <path d="M142.523 68.26l-.369.184-1.02.617-.7.533-.791.741-.863.992-.921 1.28-.481.756-.497.833-.517.914-.542.994-.572 1.067-.62 1.13-.678 1.18-.746 1.202-.824 1.202-.923 1.159-1.04 1.062-1.175.904-1.326.661-1.48.348-1.621.001-.855-.139-.878-.238-.897-.33-.913-.417-.925-.493-.935-.56-.94-.617-.942-.666-.941-.706-.936-.736-1.842-1.524-1.78-1.542-1.704-1.508-1.619-1.444-1.537-1.364-1.463-1.277-1.403-1.187-1.371-1.094-.886-.652-.898-.602-.921-.549-.955-.49-1.005-.42-1.066-.34-1.138-.253-1.222-.157-1.287-.072-1.295-.03-1.255-.031-1.181-.071-1.079-.146-.975-.237-.87-.34-.778-.436-.717-.515-.682-.577-.683-.624-.719-.64-.791-.632-.897-.608-1.025-.574-1.164-.531-1.303-.488-1.434-.459-1.551-.447-1.649-.45-1.723-.473-1.764-.515-1.778-.578-1.774-.661-1.743-.751-1.688-.839-1.617-.917-1.54-.992-1.459-1.063-1.378-1.123-1.306-1.165-1.259-1.155-1.245-1.077-1.228-.982-1.208-.885-1.184-.785-1.159-.687-1.134-.591-1.109-.5-1.086-.412-1.063-.328-1.041-.247-1.019-.168-.996-.089-.973-.014-.95.061-.925.133-.9.203-.873.269-.848.331-.823.386-.8.435-.778.475-.757.512-.736.544-.717.569-.698.589-.68.605-1.309 1.24L27 49.409l-1.176 1.222-1.108 1.169-1.041 1.098-.972 1.018-.899.923-1.551 1.528-1.175 1.092-.743.66-.257.222-.133-1.257-.153-1.214.963-.858 1.134-1.049 1.492-1.445.865-.866.937-.954 1.005-1.031 1.074-1.098 1.142-1.152 1.209-1.181 1.277-1.179 1.35-1.152.704-.555.723-.533.743-.507.766-.477.787-.441.811-.4.834-.354.86-.301.885-.243.909-.184.932-.121.954-.056.975.011.995.078 1.014.148 1.034.221 1.054.295 1.075.373 1.095.455 1.118.543 1.142.637 1.165.729 1.187.823 1.21.921 1.232 1.016 1.248 1.108 1.272 1.18 1.329 1.192 1.419 1.158 1.52 1.103 1.627 1.034 1.724.942 1.802.844 1.858.737 1.894.637 1.906.555 1.882.488 1.826.436 1.735.408 1.625.401 1.504.415 1.371.443 1.236.475 1.106.505.985.534.882.559.813.559.785.532.791.489.826.436.891.365.975.284 1.057.221 1.134.171 1.21.135 1.259.136 1.278.169 1.242.241 1.166.333 1.093.415 1.032.485.985.547.95.605.926.659.912.708 1.015.844 1.022.895 1.042.943 1.067.986 1.097 1.023 1.13 1.053 1.757 1.608 1.821 1.596 1.867 1.512.94.7.94.647.937.58.929.502.917.411.9.312.876.209.849.1 1.593-.11 1.433-.49 1.268-.813 1.117-1.043.982-1.186.871-1.263.78-1.285.7-1.265.638-1.214.596-1.147.566-1.069.545-.981.529-.89.517-.795.505-.703.969-1.144.903-.845.815-.6 1.209-.67.443-.193.449 1.697.469 1.721z" class="st0"/>
  <path d="M144.939 76.544l-.405.245-1.124.813-.777.689-.888.936-.993 1.221-1.101 1.541-.602.897-.65.984-.704 1.066-.769 1.134-.844 1.194-.938 1.228-1.05 1.218-1.183 1.151-1.337 1.009-1.513.781-1.687.48-.905.108-.941.009-.974-.093-1.003-.198-1.031-.298-1.057-.389-1.078-.476-1.098-.559-1.114-.635-1.124-.7-1.133-.756-1.134-.799-1.132-.825-1.125-.836-1.114-.832-1.1-.817-1.08-.794-1.059-.76-2.035-1.418-1.91-1.299-1.781-1.191-1.652-1.112-1.539-1.055-1.45-1.006-1.4-.949-1.395-.863-.882-.478-.909-.424-.951-.359-1.003-.28-1.064-.195-1.135-.096-1.209.006-1.268.09-1.311.148-1.317.164-1.255.107-1.147-.004-1.022-.14-.898-.279-.773-.423-.661-.546-.573-.649-.512-.729-.487-.775-.495-.8-.53-.805-.602-.784-.696-.742-.804-.697-.922-.656-1.042-.612-1.156-.574-1.252-.551-1.332-.549-1.394-.56-1.442-.588-1.477-.633-1.5-.697-1.504-.771-1.493-.844-1.466-.921-1.425-.994-1.374-1.053-1.314-1.098-1.253-1.111-1.204-1.069-1.18-.985-1.167-.885-1.151-.784-1.133-.687-1.112-.587-1.09-.49-1.068-.393-1.041-.294-1.015-.195-.987-.097-.96-.001-.932.091-.906.178-.882.258-.859.33-.836.396-.815.458-.796.51-.775.557-.758.596-.739.628-.724.659-1.404 1.373-1.344 1.403-1.283 1.389-1.219 1.341-1.154 1.272-1.086 1.182-1.01 1.071-.926.942-.833.809-1.343 1.228-.848.728-.293.243.009-1.579-.02-1.544.274-.234.793-.697 1.253-1.168 1.651-1.652.953-1.004 1.027-1.106 1.096-1.191 1.163-1.261 1.229-1.313 1.293-1.331 1.355-1.314.702-.634.719-.611.737-.586.756-.553.775-.515.797-.469.818-.416.842-.359.866-.294.891-.223.917-.146.944-.063.97.021.996.109 1.022.199 1.047.287 1.071.379 1.097.471 1.119.562 1.14.652 1.162.749 1.183.851 1.204.952 1.221 1.053 1.245 1.138 1.302 1.149 1.372 1.105 1.436 1.043 1.493.968 1.538.885 1.577.799 1.605.722 1.621.657 1.619.595 1.592.546 1.539.511 1.472.498 1.386.506 1.279.521 1.155.551 1.022.599.884.657.758.71.656.739.589.746.558.733.564.689.611.612.683.52.777.412.894.282 1.014.16 1.131.048 1.234-.042 1.301-.091 1.311-.082 1.265-.019 1.195.075 1.114.18 1.041.275.983.356.936.426.901.487.877.538.868.584 1.367.991 1.406 1.067 1.477 1.144 1.568 1.226 1.671 1.316 1.778 1.413 1.881 1.511 1.97 1.58 1.013.803 1.025.802 1.035.787 1.041.76 1.041.721 1.037.67 1.029.611 1.018.543 1.002.468.984.386.963.298.94.199.914.098h.881l1.654-.275 1.493-.603 1.323-.876 1.166-1.06 1.033-1.167.921-1.217.828-1.219.753-1.185.688-1.134.631-1.064.584-.983.548-.901.523-.82.982-1.399.904-1.104.821-.842.72-.615 1.045-.713.377-.211.57 1.926.577 1.941z" class="st0"/>
  <path d="M147.486 84.976l-.359.222-1.02.703-.727.567-.855.736-.983.944-1.124 1.182-1.282 1.424-.709.802-.763.857-.829.908-.905.949-.994.978-1.094.987-1.209.962-1.339.883-1.471.733-1.596.516-1.716.263-1.82-.025-.946-.13-.973-.206-.998-.279-1.02-.353-1.041-.426-1.06-.494-1.076-.56-1.091-.617-1.105-.667-1.119-.703-1.127-.728-1.132-.741-1.132-.742-1.129-.732-1.122-.709-1.112-.679-1.098-.64-1.083-.592-2.109-1.044-2.01-.889-1.897-.764-1.774-.692-1.646-.67-1.526-.685-1.42-.714-1.338-.735-1.285-.742-1.262-.722-1.28-.659-1.346-.541-1.46-.373-1.087-.128-1.17-.01-1.252.101-1.306.179-1.339.224-1.345.23-1.329.201-1.274.125-1.167.001-1.043-.136-.918-.269-.805-.382-.708-.478-.624-.564-.555-.628-.491-.695-.441-.75-.414-.785-.402-.812-.404-.834-.43-.838-.472-.842-.526-.845-.597-.844-.682-.836-.778-.821-.88-.807-.981-.797-1.068-.793-1.146-.802-1.206-.826-1.25-.854-1.276-.892-1.286-.932-1.279-.969-1.258-1.002-1.225-1.017-1.188-1.006-1.15-.969-1.116-.905-1.091-.823-1.076-.718-1.063-.602-1.047-.487-1.027-.371-1.006-.255-.985-.143-.962-.035-.942.068-.92.166-.9.259-.881.345-.864.424-.846.492-.831.554-.817.611-.804.657-.791.697-.779.726-.768.752-1.497 1.535-1.441 1.527-1.385 1.486-1.324 1.418-1.254 1.307-1.175 1.16-1.082 1.005-.975.851-1.582 1.274-1.007.743-.348.246.264-1.835.194-1.813.317-.248.919-.749 1.455-1.27.903-.843 1.001-.988 1.089-1.132 1.166-1.257 1.235-1.354 1.296-1.42 1.357-1.466 1.414-1.475 1.468-1.435.755-.682.77-.646.784-.603.802-.557.82-.503.838-.442.858-.372.879-.294.902-.212.926-.122.95-.027.976.075 1.002.181 1.027.288 1.053.398 1.075.504 1.095.613 1.112.72 1.125.823 1.139.92 1.163.996 1.203 1.048 1.254 1.064 1.306 1.041 1.347 1 1.378.947 1.394.887 1.395.829 1.376.772 1.34.726 1.289.687 1.223.658 1.144.643 1.056.642.958.652.858.681.758.717.666.757.582.791.513.816.463.829.439.828.446.8.469.759.514.709.582.634.671.54.778.426.909.281 1.047.125 1.167-.015 1.269-.134 1.32-.194 1.321-.195 1.295-.16 1.25-.096 1.184-.003 1.112.103 1.042.201.98.288.927.369 1.339.683 1.305.773 1.315.825 1.366.847 1.449.853 1.558.861 1.679.889 1.806.953 1.93 1.058 2.046 1.191 1.059.654 1.08.697 1.097.73 1.112.758 1.121.776 1.128.784 1.13.779 1.126.761 1.12.728 1.111.681 1.099.622 1.083.556 1.066.485 1.045.407 1.022.329.997.249.97.165.945.074 1.803-.098 1.673-.427 1.525-.68 1.373-.889 1.229-1.021 1.101-1.082.988-1.101.895-1.081.815-1.034.75-.978.694-.912.645-.841.6-.77 1.089-1.323.967-1.055.855-.817.733-.611 1.048-.739.374-.23.62 2.044.615 2.026z" class="st0"/>
  <path d="M149.863 92.914l-.391.234-1.136.721-.832.564-1.004.715-1.177.883-1.361 1.066-1.571 1.254-.877.7-.948.747-1.031.788-1.123.824-1.228.846-1.342.847-1.455.807-1.564.706-1.665.537-1.758.307-1.842.026-1.933-.239-1.002-.216-1.024-.285-1.046-.354-1.064-.42-1.082-.485-1.102-.543-1.121-.589-1.142-.63-1.16-.664-1.172-.688-1.181-.701-1.186-.699-1.191-.683-1.193-.652-1.191-.61-1.186-.56-1.177-.504-1.167-.445-1.152-.386-1.138-.321-2.21-.494-2.103-.362-1.979-.291-1.845-.292-1.708-.351-1.579-.442-1.464-.538-1.372-.619-1.31-.669-1.285-.677-1.304-.627-1.365-.516-1.46-.362-1.589-.169-1.752.074-1.901.3-1.366.285-1.375.3-1.365.285-1.335.246-1.287.184-1.212.095-1.123-.002-1.032-.097-.941-.193-.849-.289-.763-.38-.683-.473-.606-.566-.528-.668-.455-.763-.391-.847-.34-.918-.3-.98-.273-1.032-.259-1.073-.264-1.104-.285-1.121-.328-1.124-.388-1.121-.462-1.108-.547-1.09-.636-1.071-.726-1.046-.809-1.022-.886-1-.948-.983-.995-.963-1.025-.939-1.042-.913-1.047-.872-1.043-.818-1.034-.751-1.023-.67-1.008-.579-.993-.481-.98-.373-.969-.259-.962-.143-.954-.026-.947.085-.938.189-.929.288-.923.383-.915.466-.908.542-.901.607-.892.662-.885.706-.874.739-.865.765-1.692 1.568-1.649 1.58-1.624 1.534-1.605 1.412-1.554 1.259-1.462 1.091-1.336.931-1.19.787-1.879 1.174-1.157.683-.393.226.72-2.027.646-2.008.377-.236 1.102-.716 1.764-1.232 1.092-.829 1.204-.985 1.293-1.15 1.361-1.314 1.425-1.454 1.485-1.536 1.537-1.566 1.591-1.568.814-.766.824-.738.835-.707.846-.665.855-.613.867-.551.878-.48.891-.401.905-.317.921-.224.936-.124.951-.018.967.094.983.207.997.324 1.009.445 1.022.563 1.04.671 1.063.765 1.088.843 1.114.906 1.138.948 1.158.963 1.166.969 1.165.963 1.147.949 1.114.935 1.06.924.989.921.904.928.807.946.708.961.612.977.525.994.449 1 .39 1.001.348.99.33.963.332.921.352.864.387.798.43.735.484.672.542.614.61.548.689.47.774.387.865.301.96.205 1.069.089 1.178-.033 1.277-.146 1.332-.214 1.358-.248 1.37-.268 1.357-.25 1.307-.18.939-.064.885.012.837.08.792.145 1.482.447 1.388.598 1.338.693 1.335.74 1.376.729 1.455.676 1.566.606 1.696.539 1.839.503 1.983.525 2.116.619 2.235.772 1.153.465 1.172.528 1.188.586 1.2.64 1.208.689 1.214.726 1.217.749 1.216.757 1.211.752 1.202.731 1.186.698 1.168.653 1.146.601 1.128.535 1.108.461 1.086.385 1.062.308 1.036.23 1.008.156.98.076 1.886-.09 1.78-.377 1.667-.626 1.541-.812 1.407-.919 1.271-.959 1.151-.953 1.046-.921.955-.878.877-.828.809-.773.75-.714 1.354-1.252 1.176-1.02 1.004-.813.836-.626 1.162-.783.406-.25.599 2.007.582 1.974z" class="st0"/>
  <path d="M151.795 100.237l-.421.22-1.23.671-2.009 1.165-1.306.789-1.532.937-1.788 1.087-2.085 1.245-1.167.677-1.257.707-1.348.727-1.441.734-1.531.704-1.621.61-1.711.462-1.791.259-1.862.016-1.932-.23-2.002-.465-1.027-.32-1.041-.378-1.059-.429-1.077-.473-1.097-.512-1.114-.549-1.132-.58-1.147-.609-1.162-.626-1.175-.63-1.187-.621-1.196-.599-1.202-.568-1.207-.524-1.211-.471-1.211-.407-1.21-.341-1.204-.275-1.196-.211-1.186-.143-2.325-.129-2.233-.003-2.124.053-2.002.035-1.868-.042-1.73-.165-1.597-.307-1.479-.441-1.386-.544-1.322-.606-1.291-.623-1.296-.584-1.336-.498-1.404-.378-1.503-.214-1.629.007-1.756.23-1.831.37-1.855.434-1.329.336-1.315.34-1.286.315-1.252.285-1.208.243-1.139.167-1.059.07-.972-.056-.887-.195-.804-.328-.729-.451-.661-.562-.598-.668-.539-.768-.484-.863-.431-.954-.38-1.035-.335-1.109-.297-1.169-.267-1.215-.246-1.246-.237-1.262-.243-1.263-.263-1.251-.295-1.234-.336-1.209-.39-1.175-.449-1.135-.512-1.087-.575-1.028-.638-.965-.696-.897-.751-.824-.796-.742-.836-.654-.868-.561-.894-.465-.912-.361-.926-.257-.938-.15-.949-.042-.956.064-.962.167-.967.265-.971.355-.975.433-.981.504-.987.566-.993.615-.998.654-1.002.69-1.01.715-2.04 1.417-2.029 1.349-1.973 1.268-1.877 1.178-1.753 1.075-1.601.952-1.43.823-1.247.696-1.933 1.042-1.171.608-.395.201 1.049-2.204 1.005-2.192.399-.215 1.178-.651 1.93-1.114 1.234-.746 1.4-.881 1.553-1.024 1.685-1.169 1.781-1.306 1.824-1.436 1.83-1.534 1.826-1.547.912-.75.916-.724.924-.693.933-.649.94-.595.944-.529.947-.454.95-.368.95-.273.949-.167.95-.06.954.049.958.156.962.265.965.372.969.474.968.568.965.655.956.735.938.806.91.866.87.92.817.968.754 1.009.685 1.049.611 1.09.534 1.125.457 1.152.387 1.178.324 1.194.278 1.201.247 1.203.235 1.189.237 1.165.251 1.132.279 1.088.32 1.031.37.961.428.88.491.788.56.688.636.579.713.462.795.338.88.219.966.114 1.052.012 1.136-.083 1.213-.162 1.27-.218 1.311-.259 1.348-.293 1.367-.306 1.36-.296 1.939-.357 1.845-.207 1.679.06 1.538.282 1.426.46 1.355.584 1.326.649 1.336.665 1.386.627 1.473.538 1.589.416 1.725.288 1.868.181 2.01.123 2.144.138 2.265.219 1.17.171 1.188.232 1.205.292 1.217.36 1.225.428 1.232.495 1.235.554 1.235.605 1.233.645 1.227.674 1.218.689 1.207.686 1.194.669 1.179.638 1.159.6 1.137.558 1.115.51 1.095.452 1.077.39 1.058.324 1.039.26 1.016.193 1.967.192 1.882-.083 1.802-.361 1.706-.57 1.606-.718 1.503-.797 1.397-.814 1.29-.796 1.186-.767 1.091-.73 1.003-.689 1.781-1.246 1.527-1.064 1.31-.884 1.111-.72.916-.576 1.243-.746.427-.244.502 1.951.464 1.932z" class="st0"/>
  <path d="M152.871 107.336l-.482.228-1.432.692-1.076.532-1.325.663-1.589.804-1.869.953-2.17 1.102-1.208.602-1.298.631-1.394.656-1.496.674-1.6.682-1.698.635-1.793.519-1.878.342-1.959.133-2.035-.087-2.091-.334-1.06-.27-1.069-.335-1.086-.386-1.103-.429-1.122-.469-1.14-.506-1.157-.54-1.174-.568-1.192-.588-1.209-.596-1.226-.595-1.238-.584-1.25-.562-1.264-.521-1.274-.47-1.283-.41-1.289-.342-1.295-.267-1.297-.19-1.295-.115-1.29-.046-1.283.024-2.518.191-2.427.288-2.315.308-2.181.246-2.035.123-1.883-.041-1.732-.223-1.598-.395-1.489-.525-1.412-.601-1.367-.625-1.355-.596-1.372-.524-1.422-.385-1.498-.195-1.588.01-1.676.203-1.748.355-1.788.456-1.802.526-1.26.4-1.254.411-1.239.401-1.217.378-1.169.303-1.099.183-1.026.058-.95-.068-.875-.193-.802-.316-.736-.434-.676-.542-.622-.641-.571-.737-.523-.83-.481-.915-.441-.995-.407-1.068-.38-1.13-.358-1.182-.341-1.221-.33-1.251-.323-1.268-.324-1.268-.334-1.253-.353-1.216-.38-1.163-.414-1.098-.449-1.028-.489-.952-.534-.868-.583-.775-.633-.676-.685-.575-.736-.47-.786-.364-.83-.258-.872-.152-.909-.051-.939.044-.963.135-.985.217-1.004.286-1.027.336-1.051.382-1.072.421-1.087.454-1.097.48-1.1.498-1.099.515-2.17 1.059-2.1 1.074-2.004 1.058-1.875 1.003-1.72.916-1.545.814-1.362.705-1.174.597-1.798.892-1.078.52-.361.172.358-.728.797-1.605.803-1.604.366-.729.385-.189 1.142-.571 1.896-.977 1.23-.654 1.417-.772 1.597-.891 1.762-1.005 1.899-1.094 2.011-1.158 2.095-1.205 2.142-1.236 1.075-.62 1.066-.616 1.054-.605 1.042-.575 1.031-.526 1.023-.467 1.015-.404 1.003-.332.988-.252.97-.161.951-.066.93.037.906.142.879.25.848.356.812.463.77.567.723.665.673.756.619.844.562.926.505 1.002.448 1.068.399 1.125.357 1.176.321 1.218.292 1.255.272 1.284.266 1.294.27 1.287.287 1.263.31 1.221.34 1.167.374 1.102.41 1.028.452.95.498.864.549.77.602.67.659.567.721.459.79.341.867.214.948.079 1.036-.062 1.122-.197 1.19-.289 1.235-.342 1.261-.355 1.283-.365 1.294-.362 1.836-.486 1.82-.425 1.769-.305 1.671-.117 1.561.094 1.458.302 1.379.459 1.334.555 1.321.607 1.341.615 1.395.574 1.481.483 1.596.348 1.73.187 1.877.031 2.021-.091 2.155-.164 2.273-.167 2.37-.084 2.449.075 1.243.127 1.246.203 1.25.276 1.25.346 1.248.413 1.242.474 1.235.528 1.226.568 1.216.594 1.205.609 1.19.614 1.176.608 1.16.587 1.144.559 1.127.525 1.108.49 1.089.449 1.07.406 1.054.355 1.04.296 2.036.411 1.978.155 1.907-.088 1.829-.315 1.742-.504 1.649-.635 1.556-.704 1.459-.709 1.366-.693 1.273-.669 1.185-.639 1.106-.608 1.983-1.106 1.699-.952 1.441-.797 1.207-.653.985-.522 1.322-.679.449-.224.27 2.001.201 2.004z" class="st0"/>
  <path d="M152.936 114.582l-.502.218-1.487.659-1.12.503-1.385.625-1.664.751-1.97.876-2.306.992-1.288.535-1.383.559-1.479.577-1.578.591-1.676.583-1.771.52-1.853.392-1.924.232-1.995.065-2.054-.124-2.094-.34-2.125-.561-2.165-.753-1.1-.438-1.113-.475-1.13-.503-1.147-.523-1.166-.535-1.185-.543-1.202-.541-1.219-.528-1.236-.503-1.252-.471-1.265-.426-1.279-.368-1.292-.302-1.302-.233-1.309-.159-1.312-.084-1.311-.012-1.31.06-2.588.282-2.523.413-2.435.468-2.325.444-2.196.352-2.052.208-1.901.027-1.756-.17-1.629-.351-1.526-.487-1.448-.576-1.394-.613-1.368-.587-1.366-.501-1.385-.382-1.421-.239-1.468-.08-1.523.086-1.579.249-1.624.386-1.655.479-1.674.552-1.682.594-1.676.591-1.177.386-1.142.31-1.093.207-1.039.098-.984-.019-.928-.138-.868-.26-.81-.376-.755-.489-.702-.594-.659-.688-.615-.77-.576-.847-.539-.918-.506-.98-.477-1.031-.455-1.073-.44-1.107-.429-1.13-.425-1.142-.427-1.144-.434-1.128-.449-1.097-.47-1.051-.497-.996-.529-.931-.564-.854-.605-.768-.647-.676-.686-.589-.726-.498-.766-.41-.81-.321-.853-.236-.893-.153-.933-.076-.966-.003-.999.067-1.027.136-1.046.195-1.062.252-1.072.302-1.076.348-1.08.391-2.144.874-2.082.935-1.977.942-1.843.909-1.686.844-1.519.763-1.347.674-1.175.58-1.007.491-1.543.746-.927.443-.312.148.303-.76.695-1.674.734-1.672.344-.761.342-.161 1.016-.483 1.699-.827 1.114-.554 1.296-.653 1.477-.753 1.654-.852 1.819-.939 1.962-.999 2.074-1.022 2.148-.991 2.19-.919 1.1-.421 1.094-.387 1.083-.349 1.066-.304 1.044-.254 1.021-.203.989-.142.955-.072.919.003.883.082.845.172.803.272.759.374.714.479.667.583.622.685.579.78.538.868.501.953.461 1.034.428 1.099.401 1.155.38 1.192.37 1.211.363 1.219.362 1.212.368 1.19.382 1.157.4 1.112.426 1.055.458.988.495.916.535.837.579.752.626.663.675.569.73.466.79.353.859.233.93.107.999-.016 1.064-.134 1.126-.248 1.183-.352 1.219-.413 1.232-.429 1.812-.606 1.808-.567 1.789-.486 1.744-.36 1.677-.201 1.603-.027 1.53.156 1.463.348 1.414.516 1.398.616 1.416.642 1.466.614 1.547.53 1.659.394 1.798.21 1.958.006 2.119-.177 2.274-.317 2.412-.39 2.53-.383 2.623-.289 1.335-.072h1.342l1.347.073 1.347.152 1.344.234 1.338.313 1.328.389 1.317.453 1.305.505 1.289.549 1.273.578 1.257.589 1.241.59 1.222.583 1.201.566 1.183.539 1.165.507 1.148.47 1.13.427 1.113.383 1.099.329 1.094.259 2.161.314 2.104.071 2.029-.148 1.946-.348 1.86-.528 1.763-.638 1.658-.667 1.551-.655 1.446-.633 1.342-.609 2.388-1.121 2.029-.983 1.713-.837 1.425-.692 1.155-.555 1.544-.725.522-.24v2.146l-.043 2.167z" class="st0"/>
  <path d="M151.878 122.184l-.532.213-1.58.63-1.186.47-1.456.572-1.737.674-2.029.775-2.328.863-1.278.458-1.354.473-1.429.483-1.507.476-1.59.434-1.675.365-1.762.278-1.853.186-1.925.06-1.98-.093-2.024-.263-2.067-.425-2.102-.594-2.126-.765-2.17-.884-1.108-.47-1.125-.483-1.143-.486-1.162-.481-1.18-.467-1.197-.446-1.213-.413-1.23-.372-1.244-.322-1.259-.265-1.27-.203-1.278-.135-1.284-.068-1.286.001-2.566.177-2.531.353-2.479.474-2.405.526-2.308.508-2.188.43-2.055.302-1.915.139-1.782-.045-1.661-.235-1.56-.393-1.48-.506-1.418-.561-1.377-.555-1.356-.499-1.351-.407-1.358-.288-1.377-.148-1.398-.014-1.423.107-1.446.229-1.47.343-1.485.429-1.496.48-1.496.498-1.491.485-1.48.432-1.458.344-1.047.176-1.019.074-.989-.047-.957-.175-.923-.301-.885-.423-.845-.538-.806-.645-.771-.736-.739-.813-.706-.878-.674-.932-.646-.977-.619-1.015-.596-1.041-.579-1.055-.566-1.064-.56-1.062-.56-1.049-.569-1.024-.585-.987-.604-.939-.628-.882-.658-.816-.692-.741-.729-.658-.768-.573-.804-.486-.843-.398-.876-.313-.904-.228-.933-.141-.958-.055-.982.028-1.003.107-1.017.175-1.023.231-1.025.28-1.021.323-2.005.731-1.925.8-1.813.816-1.679.792-1.535.743-1.39.684-1.25.625-1.109.557-1.807.902-1.28.628-.769.37-.259.124.181-.778.444-1.715.51-1.724.252-.787.292-.14.866-.418 1.443-.704.942-.463 1.094-.539 1.25-.616 1.414-.7 1.577-.781 1.736-.847 1.878-.891 1.997-.896 2.083-.854 1.061-.392 1.063-.355 1.061-.31 1.051-.254 1.038-.194 1.023-.132 1.001-.06.971.017.941.094.907.173.869.252.832.334.793.416.756.499.716.588.674.679.633.762.597.841.564.91.533.976.508 1.029.49 1.068.479 1.094.473 1.103.473 1.102.478 1.095.49 1.073.511 1.042.538 1 .567.949.599.891.637.822.676.746.715.661.757.564.805.455.855.34.907.218.957.096 1.006-.025 1.054-.14 1.097-.242 1.132-.322 1.636-.54 1.649-.579 1.65-.571 1.637-.518 1.613-.427 1.58-.318 1.541-.181 1.493-.013 1.45.153 1.416.308 1.395.441 1.39.545 1.411.6 1.453.592 1.519.532 1.609.417 1.723.254 1.86.056 2.012-.142 2.163-.316 2.305-.443 2.427-.509 2.526-.498 2.604-.413 1.322-.145 1.328-.082 1.333-.019 1.333.053 1.33.128 1.324.203 1.313.276 1.3.342 1.285.401 1.267.451 1.25.487 1.233.511 1.214.528 1.195.532 1.178.525 1.158.512 1.139.494 1.122.47 1.109.436 1.099.392 2.175.643 2.139.45 2.104.244 2.058.045 1.995-.131 1.919-.287 1.838-.425 1.742-.522 1.641-.563 1.543-.561 1.449-.546 1.357-.526 2.444-.983 2.101-.874 1.78-.754 1.482-.63 1.201-.509 1.595-.669.537-.222-.361 2.357-.471 2.373z" class="st0"/>
  <path d="M149.462 130.113l-.606.244-1.78.717-1.318.527-1.596.631-1.877.72-2.159.785-2.439.818-1.325.406-1.395.38-1.47.327-1.549.264-1.629.19-1.719.12-1.812.041-1.902-.061-1.988-.178-2.066-.298-2.127-.438-2.172-.588-2.212-.721-2.251-.833-1.147-.441-1.164-.446-1.183-.445-1.202-.435-1.222-.416-1.24-.392-1.255-.353-1.272-.308-1.283-.254-1.292-.197-1.3-.136-1.305-.076-1.306-.016-1.308.045-2.607.244-2.572.396-2.512.501-2.424.543-2.314.521-2.186.437-2.051.305-1.913.135-1.783-.068-1.668-.256-1.575-.389-1.501-.457-1.447-.464-1.412-.422-1.389-.356-1.377-.278-1.373-.18-1.375-.062-1.381.068-1.385.187-1.389.272-1.389.346-1.389.387-1.386.404-1.382.399-.98.257-.976.218-.979.168-.983.094h-.99l-.996-.098-1-.208-1-.32-.991-.432-.976-.543-.957-.644-.936-.734-.915-.808-.892-.874-.863-.926-.837-.966-.809-.999-.786-1.02-.762-1.029-.745-1.027-.732-1.015-.723-.996-.721-.965-.724-.923-.734-.87-.747-.807-.765-.736-.786-.655-.812-.569-.84-.471-.866-.374-.893-.275-.917-.178-.938-.084-.953-.002-.959.07-.959.13-.953.182-.943.225-.928.26-1.803.6-1.713.658-1.611.685-1.504.686-1.392.665-1.276.624-1.159.571-1.042.511-.925.45-1.515.715-1.082.492-.655.285-.222.095.082-.771.209-1.709.253-1.73.13-.794.243-.113.723-.342 1.2-.585 1.686-.843 1.031-.522 1.162-.587 1.297-.647 1.428-.696 1.559-.731 1.69-.756 1.811-.756 1.904-.711.979-.321.992-.289.999-.248 1.001-.201.997-.141.986-.073.971.003.953.085.929.174.899.271.866.368.83.463.794.552.759.64.727.72.697.792.67.858.647.918.631.967.62 1.003.616 1.027.619 1.044.626 1.051.64 1.047.662 1.033.685 1.01.712.976.74.932.77.879.8.812.832.73.864.637.897.529.929.415.953.299.973.178.995.051 1.012-.072 1.023-.167 1.415-.321 1.428-.397 1.438-.448 1.441-.459 1.441-.446 1.437-.397 1.43-.328 1.414-.221 1.397-.099 1.379.023 1.366.134 1.357.251 1.354.371 1.362.465 1.386.524 1.425.537 1.486.492 1.565.387 1.664.229 1.782.039 1.912-.151 2.049-.315 2.181-.443 2.302-.521 2.401-.536 2.473-.483 2.527-.367 2.56-.202 1.283-.018 1.281.047 1.278.112 1.271.176 1.261.238 1.247.296 1.233.346 1.217.389 1.2.421 1.183.447 1.165.461 1.146.465 2.236.921 2.176.856 2.132.743 2.106.588 2.072.428 2.024.282 1.974.13 1.916-.016 1.836-.127 1.743-.209 1.655-.288 1.575-.361 1.495-.415 1.422-.446 1.349-.446 1.277-.437 2.34-.83 2.055-.761 1.771-.677 1.494-.581 1.222-.479 1.636-.645.553-.218-.808 2.552-.596 1.777-.279.813z" class="st0"/>
  <path d="M146.771 138.631l-.606.266-1.77.762-1.301.543-1.568.628-1.836.687-2.1.708-2.365.673-1.283.289-1.353.234-1.428.168-1.508.094-1.598.024-1.69-.052-1.782-.151-1.877-.252-1.978-.348-2.073-.456-2.163-.567-2.242-.67-2.3-.76-1.167-.406-1.177-.423-1.189-.429-1.203-.424-1.221-.41-1.238-.39-1.255-.364-1.267-.329-1.277-.287-1.284-.242-1.288-.195-1.293-.145-1.296-.093-1.297-.036-2.591.081-2.571.254-2.521.4-2.441.496-2.34.535-2.226.523-2.099.463-1.972.357-1.842.206-1.721.03-1.616-.118-1.531-.23-1.462-.298-1.408-.318-1.367-.293-1.337-.233-1.314-.143-1.297-.042-1.284.044-1.273.13-1.259.21-1.249.257-.876.203-.872.217-.871.217-.879.198-.89.162-.904.11-.922.056-.942-.007-.961-.084-.984-.171-1.007-.257-1.03-.342-1.051-.426-1.068-.511-1.075-.595-1.077-.677-1.077-.748-1.07-.815-1.061-.872-1.047-.912-1.027-.94-1.005-.962-.985-.971-.961-.971-.937-.962-.915-.942-.899-.915-.885-.875-.876-.824-.869-.76-.866-.683-.865-.598-.868-.51-.873-.422-.88-.334-.885-.246-.89-.162-.892-.083-.891-.008-.888.063-.882.125-.872.177-.858.218-1.652.516-1.556.576-1.457.607-1.357.609-1.258.587-1.16.55-1.063.501-.971.448-.882.398-.793.348-1.326.554-.966.38-.593.22-.201.074-.051-.773L0 125.636l.017-1.723.032-.788.214-.088.629-.265 1.036-.449 1.443-.651.879-.41.985-.469 1.092-.527 1.203-.583 1.314-.63 1.426-.661 1.531-.668 1.631-.645 1.719-.587.888-.259.907-.231.92-.193.932-.148.938-.095.936-.026.927.054.913.141.897.231.878.325.858.422.837.517.818.61.802.694.79.774.78.84.776.895.776.94.78.974.79.996.805 1.009.827 1.011.851 1.004.875.986.903.959.929.921.952.877.97.816.987.741 1.002.654 1.015.553 1.022.447 1.02.345 1.01.244.997.145.983.051.972-.038.96-.118.95-.175.943-.223.944-.252 1.317-.368 1.322-.361 1.328-.337 1.33-.284 1.333-.204 1.334-.118 1.336-.005 1.336.118 1.341.223 1.353.309 1.374.366 1.408.395 1.454.399 1.518.36 1.601.266 1.703.114 1.822-.075 1.951-.25 2.081-.389 2.206-.486 2.323-.531 2.422-.517 2.5-.445 2.547-.318 2.57-.153 1.287.001 1.284.059 1.28.114 1.275.171 1.269.225 1.26.277 1.247.322 1.233.36 1.217.388 1.199.41 1.181.425 1.161.431 2.275.848 2.227.783 2.19.673 2.142.548 2.086.415 2.011.298 1.922.199 1.836.095h1.748l1.657-.079 1.568-.151 1.49-.225 1.414-.287 1.342-.342 1.275-.376 2.352-.775 2.086-.758 1.818-.703 1.551-.622 1.283-.525 1.74-.718.594-.246-.29.884-.621 1.97-.586 2.003-.253.92z" class="st0"/>
  <path d="M144.978 147.488l-.632.298-1.842.831-1.352.567-1.635.624-1.917.63-2.205.569-1.213.234-1.288.184-1.368.112-1.454.031-1.546-.053-1.646-.134-1.748-.23-1.854-.333-1.965-.426-2.073-.535-2.181-.631-1.129-.35-1.153-.372-1.178-.388-1.201-.402-1.221-.415-1.24-.421-1.258-.424-1.272-.423-1.285-.418-1.296-.406-1.307-.389-1.32-.363-1.33-.33-1.338-.291-1.343-.25-1.348-.206-1.348-.156-1.35-.106-1.35-.055-1.344-.003-1.334.049-1.322.101-2.588.334-2.493.475-2.378.568-2.253.604-2.123.587-1.993.524-1.864.386-1.742.218-1.63.074-1.532-.028-1.449-.083-1.379-.092-1.323-.082-1.279-.051-.842-.003-.827.028-.816.061-.808.081-.803.093-.8.106-.798.119-.797.124-.803.113-.813.089-.825.056-.841.007-.861-.041-.884-.091-.908-.152-.934-.221-.964-.293-.994-.363-1.026-.43-1.055-.497-1.083-.56-1.103-.625-1.12-.685-1.135-.737-1.145-.78-1.151-.818-1.151-.843-1.143-.857-1.131-.864-1.12-.865-1.104-.864-1.085-.855-1.065-.839-1.045-.813-1.023-.78-1.002-.74-.981-.683-.961-.613-.943-.537-.923-.459-.907-.38-.891-.303-.874-.226-.858-.152-.84-.083-.823-.02-.804.038-.787.089-.767.132-.747.168-.727.199-1.393.46-1.312.508-1.234.521-1.161.51-1.089.484-1.02.45-.95.41-.883.368-.812.327-.74.284-1.253.445-.928.3-.577.172-.198.056-.193-.777-.383-1.718-.32-1.729-.123-.79.199-.067.583-.204.947-.351 1.291-.517.77-.328.853-.378.934-.424 1.015-.469 1.101-.509 1.188-.547 1.281-.575 1.374-.583 1.469-.564 1.563-.514.814-.221.832-.18.847-.133.861-.077.87-.014.875.057.88.134.883.213.885.295.887.379.89.466.894.553.9.639.909.721.919.792.933.847.95.885.968.911.99.932 1.012.944 1.034.946 1.053.937 1.072.922 1.088.898 1.1.861 1.105.815 1.105.758 1.102.696 1.095.624 1.084.546 1.063.467 1.039.39 1.012.309.984.226.959.145.937.068.915.002.895-.053.877-.103.864-.149.853-.174.845-.189.844-.187.847-.173.851-.156 1.273-.189 1.289-.104 1.308-.011 1.33.072 1.358.156 1.394.233 1.44.271 1.499.26 1.573.2 1.664.088 1.774-.071 1.902-.263 2.039-.425 2.177-.52 2.31-.566 2.436-.556 2.547-.491 2.634-.379 1.339-.128 1.347-.076 1.351-.025 1.354.029 1.353.084 1.352.14 1.348.192 1.343.243 1.338.292 1.329.336 1.317.373 1.302.404 1.285.428 1.268.441 1.255.442 1.244.436 1.23.423 1.215.404 1.197.384 1.175.361 2.283.643 2.181.543 2.077.426 1.968.32 1.861.218 1.76.11 1.66.022 1.561-.052 1.474-.135 1.389-.21 1.313-.271 1.241-.312 2.267-.683 1.98-.695 1.692-.657 1.4-.582 1.907-.839.655-.297-.209.96-.419 2.118-.358 2.118-.143.962z" class="st0"/>
  <path d="M144.459 156.12l-.671.319-1.957.862-1.443.563-1.755.582-2.079.528-2.418.385-1.346.1-1.447.011-1.554-.091-1.67-.194-1.79-.302-1.913-.425-2.044-.544-1.07-.316-1.103-.346-1.135-.374-1.166-.399-1.195-.421-1.225-.439-1.251-.457-1.277-.468-1.301-.474-1.321-.475-1.339-.474-1.357-.465-1.37-.451-1.381-.436-1.391-.417-1.401-.395-1.409-.368-1.419-.336-1.426-.295-1.428-.248-1.43-.199-1.426-.146-1.417-.089-1.405-.028-1.388.037-1.365.103-2.652.363-2.527.527-2.389.648-2.249.72-2.11.749-1.974.708-1.838.583-1.712.442-1.032.216-.986.172-.948.136-.914.109-.884.092-.856.086-.832.086-.814.08-.797.074-.784.071-.773.072-.763.077-.757.073-.755.059-.758.041-.765.011-.777-.036-.791-.085-.811-.137-.832-.188-.855-.248-.882-.318-.91-.38-.938-.434-.969-.489-1.001-.545-1.032-.597-1.059-.648-1.082-.694-1.1-.729-1.118-.758-1.131-.78-1.141-.791-1.145-.794-1.143-.79-1.137-.782-1.128-.769-1.116-.752-1.099-.73-1.079-.702-1.06-.673-1.038-.64-1.015-.601-.99-.557-.966-.508-.941-.453-.915-.389-.89-.327-.863-.265-.839-.207-.814-.151-.792-.098-.771-.049-.751-.006-.732.034-.711.069-.691.101-.672.13-.653.156-1.256.364-1.194.404-1.138.429-1.084.43-1.03.411-.977.378-.925.341-.868.304-.807.268-.744.231-1.273.359-.953.24-.595.136-.205.045-.296-.798-.623-1.756-.578-1.756-.247-.8.199-.053.579-.161.931-.281 1.25-.419.737-.266.806-.308.872-.35.937-.391 1-.428 1.064-.46 1.129-.487 1.197-.5 1.27-.485 1.344-.438.7-.189.72-.158.74-.124.761-.084.781-.037.801.015.822.073.842.136.861.203.88.273.9.345.92.42.943.495.967.568.988.636 1.013.692 1.034.733 1.055.765 1.075.79 1.095.81 1.114.827 1.128.836 1.141.842 1.152.841 1.158.834 1.157.815 1.15.786 1.138.748 1.124.707 1.108.659 1.088.603 1.062.543 1.03.479.999.415.966.35.935.281.907.216.883.151.858.097.837.05.817-.002.804-.045.793-.073.784-.094.781-.103.783-.095.787-.085.792-.075.799-.067.809-.052.824-.027.839-.004.86.013 1.391.032 1.461.014 1.547-.027 1.652-.11 1.773-.24 1.904-.408 2.042-.566 2.182-.64 2.325-.652 2.467-.612 2.599-.519 1.343-.2 1.368-.144 1.387-.089 1.404-.035 1.416.024 1.423.079 1.424.135 1.424.189 1.421.239 1.415.287 1.409.33 1.4.367 1.386.396 1.374.418 1.365.434 1.351.444 1.334.45 1.315.45 1.294.445 1.271.438 1.246.423 1.22.407 1.193.386 1.163.362 1.133.337 1.104.309 2.115.531 1.991.423 1.871.316 1.755.202 1.643.105 1.535.008 1.437-.087 1.344-.171 2.431-.507 2.108-.617 1.793-.644 1.481-.605 2.017-.905.693-.328-.079.976-.121 2.139-.042 2.117.007.955z" class="st0"/>
  <path d="M145.328 164.07l-.657.318-1.925.849-1.435.539-1.77.526-2.134.431-1.214.142-1.321.067-1.434-.025-1.553-.133-1.678-.25-1.807-.361-1.941-.475-2.074-.589-1.088-.336-1.12-.366-1.152-.393-1.185-.419-1.217-.446-1.248-.468-1.277-.484-1.306-.497-1.331-.507-1.355-.512-1.375-.51-1.394-.506-1.409-.497-1.422-.483-1.431-.464-1.441-.441-1.449-.416-1.458-.389-1.464-.353-1.465-.315-1.46-.271-1.452-.216-1.439-.151-1.426-.086-1.406-.02-1.383.045-1.356.108-1.326.172-2.548.508-2.403.679-2.257.806-2.12.883-1.256.573-1.202.568-1.157.535-1.112.487-1.07.439-1.031.396-.993.355-.956.313-.927.273-.899.236-.872.207-.848.181-.825.16-.806.141-.79.115-.779.088-.77.061-.762.036-.76-.004-.765-.06-.773-.118-.783-.172-.795-.23-.809-.303-.827-.371-.845-.431-.869-.49-.895-.547-.92-.597-.947-.646-.973-.689-.993-.729-1.013-.756-1.03-.773-1.043-.781-1.054-.782-1.062-.771-1.065-.757-1.061-.736-1.054-.709-1.046-.68-1.035-.649-1.019-.615-1.001-.58-.982-.543-.964-.506-.942-.469-.92-.429-.897-.39-.876-.35-.853-.31-.83-.27-.809-.227-.79-.185-.769-.144-.752-.107-.735-.072-.716-.037-.697-.004-.681.023-.666.049-.652.071-.639.091-.628.108-1.22.25-1.171.284-1.126.31-1.085.32-1.045.315-.999.303-.951.278-.9.246-.845.211-.782.178-1.348.272-1.016.175-.637.096-.22.031-.355-.82-.772-1.809-.753-1.814-.333-.825.208-.041.604-.127.965-.225 1.288-.34.75-.218.814-.255.872-.29.926-.328.977-.364 1.028-.392 1.079-.405 1.127-.4 1.18-.374 1.238-.336.644-.143.661-.119.679-.092.697-.064.715-.033.734.003.755.044.776.088.798.136.822.189.847.243.87.298.895.356.922.412.948.464.972.512.999.556 1.021.596 1.042.631 1.062.663 1.082.692 1.099.718 1.112.739 1.119.756 1.128.773 1.132.786 1.13.79 1.12.784 1.106.767 1.091.746 1.073.721 1.051.682 1.029.639.999.59.968.537.937.482.909.43.881.371.853.301.83.235.81.179.79.126.776.076.763.025.754-.02.752-.044.754-.061.758-.078.768-.082.781-.082.795-.088.811-.096.831-.11.854-.127.88-.137.914-.153.948-.181.984-.215 1.026-.259 1.071-.309 1.754-.587 1.876-.717 2.005-.781 2.139-.762 2.275-.696 2.411-.585 2.541-.441 1.314-.149 1.34-.09 1.362-.03 1.379.03 1.392.095 1.402.152 1.407.204 1.409.251 1.407.297 1.401.334 1.393.364 1.386.391 1.377.414 1.366.433 1.357.451 1.344.465 1.331.474 1.314.478 1.295.478 1.272.476 1.248.465 1.222.45 1.193.434 1.163.411 1.134.386 1.102.361 2.11.64 1.985.522 1.86.409 1.739.294 1.622.192 1.511.088 1.407-.007 1.307-.092 2.34-.361 2.007-.5 1.691-.551 1.385-.54 1.875-.834.641-.309.076.938.226 2.036.309 1.995.168.894z" class="st0"/>
  <path d="M147.45 171.225l-.693.323-2.064.841-1.568.505-1.967.451-2.402.302-1.386.051-1.523-.05-1.666-.17-1.816-.314-1.973-.47-2.135-.613-1.127-.352-1.165-.379-1.204-.404-1.241-.43-1.277-.456-1.312-.481-1.346-.5-1.377-.52-1.408-.534-1.435-.546-1.462-.555-1.487-.558-1.508-.552-1.525-.542-1.539-.53-1.55-.512-1.556-.486-1.559-.454-1.56-.422-1.56-.381-1.558-.329-1.547-.266-1.531-.201-1.51-.134-1.484-.062-1.454.009-1.424.085-1.388.157-1.351.225-1.311.292-2.499.74-1.395.519-1.341.571-1.294.61-1.253.641-1.213.656-1.175.654-1.14.636-1.106.597-1.072.546-1.038.497-1.01.449-.98.404-.955.356-.932.311-.911.266-.892.225-.874.186-.859.143-.846.094-.836.045-.827-.001-.821-.053-.822-.117-.822-.19-.823-.261-.824-.329-.829-.399-.836-.463-.841-.522-.85-.579-.861-.635-.871-.679-.878-.709-.89-.732-.901-.749-.913-.752-.922-.751-.93-.742-.933-.723-.932-.698-.925-.665-.918-.629-.909-.591-.897-.554-.883-.517-.868-.479-.856-.444-.842-.412-.829-.381-.816-.349-.803-.318-.789-.287-.776-.258-.762-.228-.749-.199-.737-.172-.726-.146-.715-.118-.703-.092-.692-.065-.682-.041-.674-.023-.664-.003-.655.016-.645.033-.637.045-.629.055-1.24.132-1.212.155-1.176.178-1.141.192-1.105.19-1.067.184-1.02.176-.966.16-.909.142-.844.117-1.46.168-1.103.101-.692.053-.238.016-.352-.831-.365-.853-.424-.982-.43-.986-.378-.863-.37-.845.223-.027.649-.088 1.035-.158 1.371-.248.795-.165.857-.197.912-.231.964-.259 1.012-.276 1.055-.286 1.094-.291 1.134-.28 1.176-.256 1.221-.224.626-.097.637-.082.648-.064.66-.042.675-.018.69.007.707.037.723.069.738.1.754.135.773.172.792.209.811.246.829.283.851.319.871.357.893.397.913.434.935.473.953.512.971.549.988.584 1.003.62 1.016.652 1.024.684 1.032.714 1.037.742 1.039.765 1.032.779 1.023.782 1.009.778.994.764.975.741.958.71.936.668.911.621.889.574.865.518.843.459.826.402.811.335.798.26.789.194.78.138.774.079.769.021.771-.025.78-.061.79-.088.802-.117.817-.148.835-.179.857-.205.881-.233.91-.264.936-.303.966-.344 1-.387 1.036-.434 1.073-.481 1.113-.526 1.156-.568 1.201-.592 1.248-.594 1.301-.576 2.161-.84 2.298-.73 2.443-.572 2.578-.374 1.334-.098 1.36-.033 1.383.032 1.401.094 1.416.156 1.43.217 1.439.272 1.444.314 1.444.353 1.438.385 1.431.412 1.424.439 1.415.461 1.406.479 1.394.491 1.38.5 1.362.506 1.342.508 1.32.503 1.296.496 1.269.486 1.242.469 1.211.447 1.182.424 1.151.401 1.121.376 1.088.348 1.057.323 2.016.565 1.885.457 1.753.349 1.626.23 1.502.111 1.385.006 1.274-.078 1.173-.144 2.056-.42 1.705-.508 1.379-.516 1.845-.81.628-.302.231.877.565 1.902.635 1.854.309.831z" class="st0"/>
  <path d="M149.961 177.716l-.619.253-1.847.657-1.405.403-1.763.374-2.156.272-1.242.064-1.363-.011-1.494-.1-1.634-.207-1.777-.337-1.927-.483-2.079-.639-2.231-.78-1.172-.43-1.207-.452-1.244-.469-1.278-.481-1.31-.493-1.341-.501-1.37-.509-1.398-.517-1.422-.52-1.444-.518-1.464-.519-1.481-.514-1.495-.508-1.506-.5-1.514-.484-1.517-.464-1.516-.435-1.512-.402-1.504-.361-1.495-.307-1.482-.251-1.466-.19-1.442-.126-1.416-.057-1.387.012-1.354.081-2.607.346-1.52.323-1.469.402-1.423.469-1.379.532-1.338.585-1.3.632-1.267.67-1.24.696-1.212.705-1.184.693-1.156.67-1.134.632-1.114.581-1.091.528-1.066.475-1.045.42-1.027.361-1.008.303-.989.245-.973.187-.958.13-.944.072-.929.01-.917-.051-.909-.119-.904-.189-.9-.257-.892-.321-.885-.385-.879-.452-.872-.513-.862-.563-.846-.601-.834-.636-.822-.66-.81-.674-.803-.677-.797-.668-.791-.654-.785-.631-.779-.603-.773-.567-.766-.527-.757-.489-.748-.452-.739-.421-.733-.393-.727-.368-.72-.347-.717-.327-.712-.31-.708-.292-.706-.275-.704-.259-.702-.24-.7-.22-.698-.202-.694-.181-.69-.159-.687-.14-.683-.123-.68-.104-.675-.085-.671-.069-.67-.055-.667-.044-.661-.033-.656-.023-.652-.013-1.29-.004-1.273.024-1.246.053-1.215.069-1.182.074-1.145.075-1.099.074-1.044.068-.983.059-.913.05-1.578.07-1.191.034-.748.012-.258.003-.28-.832-.3-.856-.361-.987-.376-.99-.341-.868-.341-.85.242-.014.704-.044 1.121-.087 1.483-.148.859-.103.924-.123.982-.14 1.036-.154 1.083-.16 1.12-.166 1.155-.167 1.19-.154 1.222-.129 1.248-.106.633-.043.639-.034.647-.023.655-.008.665.011.671.03.679.05.688.07.698.095.708.12.717.144.726.168.737.194.747.221.759.248.769.276.781.304.792.332.803.361.814.392.827.424.839.456.85.49.863.525.876.563.885.6.894.638.899.674.903.702.901.722.896.738.887.745.879.741.87.728.864.709.859.683.855.639.847.584.844.53.842.469.839.403.836.335.836.269.836.199.837.123.838.054.845.001.855-.046.866-.097.879-.146.892-.197.91-.239.93-.28.95-.327.973-.376.998-.427 1.024-.479 1.053-.53 1.084-.578 1.118-.625 1.152-.656 1.185-.668 1.221-.665 1.26-.646 1.301-.611 1.345-.568 1.395-.516 1.454-.451 2.552-.59 1.332-.21 1.367-.14 1.403-.07 1.433.003 1.462.075 1.488.143 1.507.208 1.523.271 1.533.331 1.536.381 1.537.418 1.538.454 1.536.484 1.531.506 1.52.522 1.507.535 1.489.544 1.469.547 1.445.541 1.42.533 1.392.526 1.365.512 1.334.496 1.302.478 1.268.455 1.233.433 1.197.41 1.161.387 2.205.695 2.049.567 1.893.415 1.742.267 1.598.136 1.463.028 1.331-.063 2.309-.304 1.889-.441 1.505-.484 1.979-.796.663-.304.316.82.695 1.785.683 1.753.305.79z" class="st0"/>
  <path d="M152.067 183.685l-.702.237-2.093.598-1.596.34-2.006.269-2.457.111-1.418-.041-1.559-.138-1.706-.251-1.864-.38-2.027-.526-2.192-.681-2.356-.844-1.238-.481-1.278-.514-1.319-.538-1.361-.555-1.4-.564-1.438-.567-1.473-.563-1.505-.557-1.533-.548-1.557-.539-1.577-.531-1.594-.519-1.604-.502-1.61-.484-1.611-.458-1.608-.428-1.6-.392-1.587-.339-1.57-.279-1.549-.212-1.524-.137-1.497-.062-1.638.019-1.594.108-1.559.19-1.525.268-1.49.342-1.461.409-1.431.473-1.399.532-1.37.583-1.346.631-1.324.67-1.301.692-1.279.697-1.261.686-1.248.665-1.232.637-1.214.594-1.199.542-1.184.489-1.169.435-1.15.374-1.134.313-1.116.249-1.098.185-1.081.118-1.06.051-1.038-.018-1.016-.089-.999-.168-.981-.241-.964-.303-.943-.357-.919-.403-.895-.444-.872-.48-.849-.504-.827-.519-.805-.525-.785-.52-.763-.512-.744-.5-.728-.481-.71-.456-.694-.425-.68-.394-.667-.368-.657-.344-.65-.324-.643-.306-.639-.293-.635-.283-.633-.276-.634-.271-.636-.269-.638-.269-.643-.272-.649-.272-.654-.268-.659-.257-.663-.244-.667-.228-.67-.211-.673-.196-.676-.182-.676-.17-.676-.158-.678-.146-.679-.136-.677-.122-.675-.11-.675-.098-1.344-.163-1.333-.122-1.31-.088-1.284-.062-1.253-.039-1.214-.019-1.166-.005-1.109.003-1.043.01-.966.01-1.658.024-1.239.021-1.036.018-.177-.828-.433-1.834-.35-1.296-.412-1.404.26-.002.755-.008 1.205-.025 1.598-.055.924-.041.995-.05 1.057-.055 1.111-.06 1.158-.058 1.195-.055 1.229-.046 1.259-.029 1.284-.001 1.3.028.656.026.659.037.664.046.669.058.672.067.673.081.676.098.679.116.682.135.684.15.685.169.689.188.69.208.691.225.692.243.692.258.692.274.693.286.694.301.698.316.701.333.706.354.711.376.718.403.724.433.732.467.741.505.749.543.756.578.764.607.774.629.784.646.793.655.805.652.82.64.833.616.849.585.865.548.88.5.889.439.898.375.907.312.916.246.922.179.926.108.937.043.95-.019.968-.085.982-.146.998-.204 1.016-.263 1.034-.32 1.053-.379 1.071-.438 1.091-.497 1.113-.552 1.134-.606 1.155-.651 1.175-.68 1.204-.699 1.231-.704 1.257-.691 1.282-.661 1.314-.62 1.35-.574 1.389-.518 1.433-.455 1.476-.385 1.522-.309 1.574-.221 1.972-.142 2.042-.003 2.104.146 2.156.287 2.19.416 2.215.527 1.672.456 1.676.494 1.673.522 1.667.541 1.655.552 1.64.564 1.619.571 1.596.574 1.569.575 1.536.569 1.502.56 1.466.555 1.427.544 1.385.531 1.341.51 1.296.484 1.249.451 1.204.41 2.269.68 2.084.495 1.905.326 1.733.18 1.568.062 1.417-.031 1.276-.106 2.177-.342 1.725-.417 1.314-.409.932-.337.751-.299.888 2.474.81 2.419z" class="st0"/>
  <path d="M153.539 189.173l-.699.195-2.059.471-1.544.249-1.915.177-2.314.04-1.317-.064-1.434-.14-1.558-.227-1.686-.325-1.818-.436-1.951-.561-2.087-.693-2.225-.825-1.162-.46-1.193-.491-1.225-.518-1.256-.543-1.29-.558-1.326-.564-1.362-.561-1.394-.553-1.425-.539-1.45-.522-1.472-.502-1.49-.482-1.504-.46-1.512-.438-1.517-.415-1.518-.387-1.513-.35-1.504-.304-1.492-.251-1.479-.192-1.638-.135-1.613-.055-1.594.02-1.578.092-1.559.164-1.541.234-1.528.301-1.509.365-1.486.427-1.469.483-1.452.536-1.434.586-1.411.629-1.389.654-1.374.667-1.363.668-1.351.661-1.338.641-1.324.609-1.315.564-1.307.512-1.295.458-1.28.4-1.264.339-1.246.275-1.226.21-1.204.144-1.178.083-1.149.019-1.113-.044-1.077-.107-1.041-.169-1.006-.228-.969-.28-.936-.317-.908-.341-.88-.353-.851-.36-.827-.364-.803-.362-.782-.354-.761-.341-.743-.321-.726-.301-.711-.279-.7-.26-.689-.243-.68-.229-.673-.22-.667-.213-.664-.212-.661-.214-.659-.22-.657-.231-.656-.245-.657-.263-.658-.281-.659-.301-.66-.322-.66-.33-.663-.324-.665-.315-.668-.304-.67-.292-.673-.28-.676-.266-.679-.252-.68-.235-.681-.219-.684-.203-.687-.187-1.372-.338-1.362-.283-1.346-.231-1.326-.18-1.293-.137-1.251-.097-1.196-.057-1.538-.032-1.396.003-2.278.046-1.958.059-.017-.836-.114-1.844-.216-1.854-.13-.847 2.278-.043 1.664-.026.97-.01 1.048-.004 1.117.007 1.174.017 1.222.031 1.262.053 1.292.081 1.318.112 1.339.148 1.352.188.676.111.677.123.679.137.679.15.679.162.676.173.675.186.674.198.671.211.668.224.663.241.659.256.654.269.648.277.642.277.637.272.633.267.63.266.629.266.63.268.632.272.636.28.641.294.649.308.658.328.668.351.679.375.695.404.711.434.728.458.745.475.765.488.787.498.81.501.831.496.855.481.878.456.902.422.928.383.953.339.976.284.998.22 1.017.143 1.039.067 1.063-.006 1.086-.074 1.105-.14 1.124-.207 1.142-.272 1.159-.335 1.175-.396 1.193-.454 1.207-.512 1.221-.563 1.236-.612 1.253-.646 1.268-.668 1.282-.685 1.299-.691 1.321-.682 1.343-.655 1.366-.612 1.388-.564 1.416-.511 1.445-.453 1.473-.387 1.501-.317 1.534-.243 1.565-.166 1.598-.083 1.64.005 1.496.081 1.523.156 1.545.228 1.565.292 1.58.348 1.593.395 1.599.431 1.601.46 1.598.482 1.591.501 1.578.518 1.562.529 1.539.537 1.514.549 1.485.559 1.452.567 1.415.568 1.378.564 1.337.552 1.295.534 1.256.505 1.217.47 2.319.821 2.159.663 1.997.512 1.837.37 1.684.244 1.54.136 1.402.043 2.433-.101 1.99-.256 1.585-.324 2.082-.574.7-.229.218.749.439 1.62.392 1.573.164.699z" class="st0"/>
  <path d="M154.471 194.147l-.711.163-2.09.387-1.556.195-1.906.119-2.258-.016-1.265-.083-1.357-.148-1.451-.221-1.547-.304-1.646-.396-1.749-.494-1.855-.594-1.963-.695-2.069-.793-2.174-.884-2.275-.963-1.174-.506-1.197-.518-1.22-.524-1.245-.521-1.271-.513-1.295-.502-1.319-.485-1.341-.465-1.361-.442-1.377-.415-1.391-.388-1.401-.361-1.407-.326-1.411-.284-1.581-.259-1.579-.191-1.578-.125-1.579-.058-1.576.008-1.571.076-1.561.141-1.555.204-1.548.265-1.536.325-1.523.385-1.51.443-1.498.501-1.483.551-1.467.588-1.449.612-1.435.622-1.427.626-1.418.623-1.409.612-1.4.591-1.393.558-1.39.517-1.383.474-1.367.425-1.352.375-1.332.322-1.307.268-1.282.214-1.254.162-1.223.112-1.189.063-1.155.017-1.12-.028-1.081-.069-1.043-.109-1.008-.145-.973-.176-.939-.199-.907-.215-.88-.223-.857-.218-.837-.207-.817-.193-.801-.179-.787-.168-.777-.16-.767-.155-.761-.154-.754-.16-.75-.168-.748-.179-.746-.195-.745-.217-.741-.242-.739-.27-.737-.299-.735-.329-.731-.354-.728-.37-.722-.38-.719-.382-.715-.379-.713-.374-.712-.362-.711-.346-.711-.333-.711-.319-.71-.303-.707-.285-.706-.267-1.405-.477-1.386-.396-1.362-.316-1.33-.245-1.293-.181-1.249-.123-2.327-.129-2.037-.026-1.681.026-1.261.038-1.056.039.095-.857.169-1.884.112-1.885.029-.859 1.96-.06 2.281-.047 1.398-.002 1.539.034 1.196.06 1.25.102 1.295.145 1.328.192 1.349.246 1.362.301 1.373.358.688.2.686.214.685.231.683.247.682.263.68.279.677.292.674.304.672.317.669.327.666.336.666.339.666.326.667.302.665.28.665.26.665.243.665.227.666.216.669.207.672.204.676.206.681.21.688.219.697.232.707.248.72.266.735.286.751.307.769.324.791.337.812.343.835.346.862.342.89.334.919.32.95.292.986.25 1.022.197 1.058.138 1.094.079 1.131.019 1.167-.044 1.197-.106 1.223-.167 1.245-.23 1.263-.293 1.283-.357 1.297-.417 1.312-.474 1.323-.527 1.329-.577 1.339-.617 1.352-.644 1.366-.66 1.376-.666 1.387-.661 1.403-.645 1.427-.615 1.447-.571 1.465-.519 1.481-.462 1.498-.406 1.52-.345 1.536-.279 1.548-.212 1.565-.144 1.581-.071 1.597.001 1.613.075 1.635.154 1.474.206 1.485.263 1.495.313 1.502.357 1.504.39 1.501.416 1.495.439 1.485.462 1.469.485 1.45.505 1.427.525 1.399.541 1.369.553 1.334.56 1.3.559 1.266.551 1.235.531 1.205.506 2.318.929 2.188.806 2.053.677 1.923.551 1.793.429 1.666.321 1.541.225 1.421.141 1.308.066 2.3-.031 1.909-.168 1.543-.241 2.063-.461.7-.191.147.699.293 1.509.251 1.474.1.66z" class="st0"/>
  <path d="M154.94 198.803l-.746.133-2.184.303-1.618.137-1.969.052-2.32-.084-1.293-.114-1.381-.18-1.465-.254-1.551-.333-1.635-.417-1.721-.504-1.806-.591-1.889-.676-1.971-.754-2.053-.825-2.135-.884-2.215-.928-2.294-.958-1.176-.482-1.196-.476-1.628-.62-1.665-.597-1.701-.564-1.734-.523-1.763-.474-1.785-.402-1.489-.262-1.498-.195-1.508-.13-1.513-.067-1.515-.004-1.515.056-1.513.114-1.509.173-1.504.229-1.5.287-1.491.338-1.48.385-1.464.429-1.452.469-1.444.505-1.434.528-1.424.543-1.412.553-1.405.561-1.402.566-1.402.564-1.4.554-1.401.534-1.399.509-1.397.481-1.393.451-1.385.417-1.372.381-1.354.343-1.336.304-1.313.264-1.289.226-1.261.187-1.236.148-1.208.111-1.18.076-1.149.042-1.117.011-1.084-.016-1.051-.038-1.019-.055-.988-.064-.961-.074-.938-.083-.919-.092-.906-.101-.898-.11-.89-.124-.883-.144-.877-.167-.873-.193-.868-.221-.865-.25-.861-.281-.857-.313-.853-.343-.845-.365-.837-.381-.826-.39-.815-.397-.802-.4-.79-.399-.778-.393-.767-.383-.755-.371-.744-.358-.736-.34-1.419-.605-1.398-.53-1.376-.455-1.351-.384-1.322-.314-1.29-.248-2.449-.334-2.225-.168-1.943-.053-1.596.005-1.191.024-.996.034.169-.891.343-1.954.299-1.949.121-.884 1.056-.04 1.26-.037 1.68-.024 2.036.03 2.326.133 1.25.126 1.292.185 1.33.249 1.362.321 1.388.4 1.406.483.708.271.71.291.711.308.714.324.714.339.715.353.717.365.719.378.722.383.726.385.731.383.736.373.741.358.744.333.746.303.749.274.751.245.755.219.757.195.759.178.761.165.765.156.771.151.778.149.788.152.798.16.812.171.828.182.848.196.869.207.894.207.923.197.954.178.989.153 1.023.121 1.06.087 1.097.047 1.135.005 1.17-.039 1.203-.084 1.236-.132 1.266-.181 1.292-.233 1.319-.284 1.34-.337 1.359-.388 1.375-.437 1.388-.483 1.395-.526 1.399-.564 1.405-.593 1.414-.611 1.423-.618 1.43-.619 1.439-.616 1.454-.602 1.472-.577 1.487-.539 1.502-.488 1.512-.431 1.526-.372 1.538-.313 1.549-.252 1.554-.191 1.561-.129 1.569-.063 1.573.004 1.574.069 1.573.136 1.571.2 1.573.267 1.4.291 1.396.333 1.388.364 1.376.392 1.361.42 1.343.444 1.322.467 1.301.486 1.278.5 1.253.511 1.23.518 1.205.517 1.183.511 1.16.498 2.249.947 2.15.87 2.047.782 1.942.687 1.836.588 1.734.49 1.635.395 1.538.303 1.447.221 1.356.148 1.263.084 2.257.021 1.907-.115 1.557-.189 2.092-.379.712-.159.086.668.158 1.451.119 1.433.042.646z" class="st0"/>
  <path d="M154.985 203.338l-.636.082-1.857.187-1.371.083-1.66.028-1.948-.06-2.227-.199-2.498-.385-1.348-.277-1.416-.34-1.483-.404-1.55-.469-1.616-.533-1.682-.597-1.749-.655-1.814-.708-1.879-.753-1.944-.789-2.006-.812-2.068-.824-2.128-.819-2.187-.798-2.249-.754-2.309-.688-2.367-.548-2.4-.37-1.45-.124-1.454-.053-1.453.011-1.449.07-1.443.127-1.437.182-1.429.233-1.419.275-1.404.313-1.39.346-1.375.378-1.362.406-1.353.431-1.345.453-1.338.468-1.333.482-1.334.494-1.335.505-1.337.514-1.339.517-1.344.517-1.351.512-1.36.503-1.369.491-1.373.477-1.374.46-1.373.441-1.367.419-1.361.396-1.353.371-1.341.345-1.33.317-1.314.287-1.299.257-1.282.224-1.262.192-1.243.16-1.219.132-1.196.102-1.172.071-1.149.038-1.128.005-1.106-.029-1.087-.062-1.07-.098-1.057-.134-1.046-.169-1.036-.204-1.03-.236-1.025-.269-1.018-.3-1.006-.328-.988-.348-.967-.361-.946-.37-.924-.374-.903-.376-.884-.377-.866-.371-.85-.366-.832-.359-.819-.348-.803-.338-.79-.328-.774-.318-.761-.308-.751-.292-.741-.275-1.459-.496-1.514-.452-1.472-.38-1.426-.308-1.373-.242-1.311-.186-1.242-.139-2.235-.162-1.844-.052-1.389.006-1.168.028.219-.931.466-2.041.438-2.032.188-.92 1.389-.043 1.643-.022 2.163.041 2.59.174 1.421.168 1.486.243 1.542.322 1.587.416 1.624.515 1.66.615.726.299.732.321.737.339.747.356.758.369.77.381.781.392.795.399.808.4.82.398.834.391.844.382.854.367.862.345.867.317.871.284.875.254.878.223.882.195.888.169.892.145.9.125.908.108.918.097.931.086.951.075.973.065 1 .054 1.032.042 1.064.026 1.096.002 1.129-.025 1.16-.057 1.191-.09 1.218-.125 1.244-.163 1.27-.2 1.296-.238 1.321-.277 1.34-.315 1.359-.353 1.374-.389 1.387-.424 1.395-.457 1.397-.486 1.399-.512 1.399-.535 1.399-.553 1.398-.561 1.398-.562 1.402-.556 1.409-.548 1.42-.536 1.429-.521 1.438-.497 1.446-.461 1.458-.422 1.475-.379 1.485-.332 1.493-.283 1.498-.226 1.503-.17 1.506-.111 1.508-.054 1.508.005 1.508.068 1.503.132 1.494.197 1.484.263 1.778.404 1.756.476 1.725.524 1.691.564 1.657.596 1.619.618 1.189.474 1.17.479 2.283.951 2.206.922 2.127.879 2.047.82 1.966.752 1.885.673 1.801.588 1.717.503 1.632.416 1.547.333 1.463.255 1.378.181 1.291.116 2.319.087 1.969-.048 1.618-.133 2.184-.295.746-.131.027.661.03 1.45-.01 1.447-.018.658z" class="st0"/>
  <path d="M154.607 207.94l-.68.05-1.978.093-1.453.013-1.755-.052-2.045-.16-2.324-.315-1.264-.228-1.329-.281-1.398-.337-1.465-.398-1.533-.458-1.6-.52-1.666-.579-1.734-.635-1.801-.686-1.867-.73-1.935-.764-2.001-.788-2.069-.797-2.136-.792-2.203-.77-2.267-.732-1.545-.455-1.566-.397-1.581-.311-1.594-.22-1.604-.124-1.611-.029-1.404.052-1.398.115-1.39.171-1.38.226-1.367.272-1.351.309-1.336.34-1.321.367-1.307.39-1.296.414-1.289.434-1.284.453-1.279.464-1.278.473-1.276.481-1.28.489-1.284.494-1.292.498-1.3.5-1.309.499-1.318.498-1.329.496-1.338.492-1.345.485-1.352.477-1.358.467-1.361.454-1.366.439-1.368.422-1.372.401-1.375.377-1.374.352-1.372.324-1.364.296-1.357.264-1.348.228-1.338.186-1.328.142-1.318.093-1.306.043-1.294-.007-1.278-.056-1.261-.107-1.241-.156-1.217-.2-1.189-.235-1.16-.264-1.134-.288-1.109-.303-1.086-.316-1.063-.326-1.039-.332-1.017-.335-.993-.339-.971-.34-.95-.338-.928-.337-.908-.332-.889-.326-.872-.318-.855-.31-.838-.301-.82-.293-.802-.285-.787-.275-.774-.26-1.513-.478-1.559-.442-1.506-.377-1.449-.314-1.388-.255-1.318-.202-1.242-.158-1.435-.14-1.29-.086-2.085-.061-1.777.011.24-.974.526-2.134.519-2.123.231-.961 1.167-.029 1.388-.005 1.844.055 2.234.164 1.242.14 1.311.187 1.374.243 1.427.309 1.473.379 1.515.453 1.462.495.743.274.752.292.762.306.777.317.791.328.806.337.821.346.835.357.852.364.869.37.887.374.906.375.927.373.948.368.971.36.991.348 1.012.329 1.024.303 1.033.271 1.037.239 1.044.205 1.054.17 1.065.134 1.079.098 1.096.061 1.115.027 1.136-.007 1.157-.041 1.18-.075 1.202-.108 1.226-.138 1.249-.166 1.268-.199 1.287-.231 1.303-.262 1.318-.294 1.331-.322 1.344-.35 1.353-.375 1.361-.4 1.368-.422 1.372-.444 1.373-.462 1.37-.478 1.366-.491 1.358-.503 1.348-.51 1.341-.516 1.337-.516 1.334-.511 1.332-.503 1.329-.493 1.33-.479 1.335-.467 1.342-.452 1.35-.431 1.359-.406 1.371-.377 1.387-.347 1.402-.314 1.415-.275 1.426-.234 1.434-.184 1.441-.129 1.447-.071 1.451-.012 1.451.051 1.448.123 2.397.368 2.364.548 2.306.687 2.246.753 2.184.797 2.125.817 2.065.821 2.003.81 1.941.787 1.876.751 1.811.706 1.746.654 1.68.595 1.613.533 1.548.468 1.481.404 1.414.34 1.347.278 2.494.387 2.226.201 1.947.063 1.66-.026 1.37-.079 1.858-.184.636-.08-.034.679-.104 1.504-.15 1.521-.083.699z" class="st0"/>
  <path d="M153.772 212.791l-.586.011-1.707-.005-1.253-.038-1.507-.094-1.748-.178-1.983-.289-2.211-.425-2.437-.581-1.301-.355-1.357-.402-1.413-.448-1.468-.492-1.523-.536-1.58-.577-1.635-.614-1.692-.644-1.75-.668-1.807-.684-1.864-.69-1.92-.683-1.972-.664-2.023-.633-2.067-.581-2.101-.465-2.12-.298-2.129-.129-2.129.041-2.122.203-1.323.21-1.319.272-1.313.322-1.306.362-1.295.395-1.285.42-1.278.442-1.272.462-1.268.48-1.265.493-1.266.5-1.268.503-1.273.506-1.281.509-1.289.51-1.298.512-1.308.511-1.317.511-1.327.51-1.337.508-1.346.504-1.357.498-1.366.492-1.376.483-1.386.471-1.395.458-1.402.442-1.406.424-1.411.404-1.415.378-1.417.35-1.418.316-1.419.278-1.418.235-1.415.186-1.408.134-1.399.081-1.385.028-1.367-.022-1.347-.068-1.325-.112L48 216.62l-1.278-.188-1.254-.219-1.228-.248-1.202-.27-1.177-.285-1.152-.295-1.127-.304-1.102-.309-1.078-.31-1.055-.311-1.031-.311-1.007-.31-.985-.307-.964-.303-.943-.298-.922-.292-.902-.286-.88-.28-.861-.274-.841-.267-.826-.255-.809-.244-1.575-.45-1.613-.422-1.548-.362-1.721-.352-1.623-.28-1.517-.215-1.402-.154-2.417-.17-1.824-.048-1.542.01.231-1.015.523-2.226.535-2.217.246-1.004 1.777-.01 2.084.061 1.291.086 1.435.14 1.242.159 1.319.202 1.387.255 1.45.314 1.507.377 1.559.442 1.515.477.775.26.787.274.803.285.82.293.839.301.856.308.873.318.89.325.909.332.93.336.95.338.972.34.995.338 1.018.335 1.04.331 1.064.325 1.087.316 1.111.303 1.135.287 1.162.264 1.19.235 1.219.2 1.244.157 1.263.107 1.28.056 1.297.007 1.309-.043 1.32-.094 1.331-.142 1.341-.187 1.349-.228 1.358-.265 1.366-.298 1.373-.325 1.375-.353 1.375-.378 1.373-.402 1.369-.422 1.366-.44 1.362-.455 1.357-.467 1.352-.478 1.346-.485 1.337-.492 1.328-.496 1.318-.498 1.309-.499 1.3-.5 1.291-.498 1.283-.494 1.279-.489 1.276-.481 1.277-.473 1.279-.464 1.283-.453 1.287-.435 1.296-.414 1.306-.392 1.32-.367 1.335-.341 1.35-.31 1.367-.273 1.378-.226 1.389-.173 1.397-.115 1.403-.052 1.609.027 1.603.124 1.593.218 1.581.311 1.565.396 1.544.454 2.267.731 2.201.769 2.135.791 2.068.796 2 .787 1.934.763 1.867.729 1.799.686 1.733.635 1.666.578 1.598.52 1.532.458 1.465.398 1.397.338 1.329.28 1.264.229 2.323.316 2.043.162 1.755.053 1.454-.012 1.977-.09.68-.05-.101.728-.259 1.624-.308 1.655-.156.761z" class="st0"/>
</svg> 