<svg viewBox="0 0 22 21" xmlns="http://www.w3.org/2000/svg">
  <g id="Page-1" fill="none" fill-rule="evenodd">
    <g id="pt2" transform="translate(-1650 -891)" fill="black">
      <path d="M1664.64729 905.908851c-.8428 0-2.09247-.348745-2.09247-1.830912 0-.464993.05813-.929987.2325-1.482166h-.14531c-.55218 2.179656-1.54029 3.313078-3.51651 3.313078-1.85998 0-2.87715-1.511229-2.87715-3.487451 0-3.429326 2.32497-6.103038 6.21929-6.103038 1.27873 0 2.15059.494055 3.40026.494055 1.0753 0 1.71466-.494055 1.71466-.494055l-1.16248 7.904888c-.02906.232496-.02906.406869-.02906.494055 0 .290621.14531.435931.34874.435931 1.19155 0 3.45839-3.051519 3.45839-6.858652 0-3.458388-2.15059-7.003963-6.85865-7.003963-6.10304 0-8.83488 6.538969-8.83488 11.043593 0 4.475561 2.06341 8.660502 7.46896 8.660502 2.90621 0 5.66711-1.685601 6.48085-2.557464l.14531.116249c-1.42405 1.598414-4.4465 3.167767-7.87583 3.167767-6.7424 0-10.72391-3.603699-10.72391-9.357992C1650 897.568032 1653.51651 891 1663.45575 891c5.26023 0 8.54425 3.458388 8.54425 7.178336 0 3.923381-3.28402 7.730515-7.35271 7.730515zm-3.42932-1.540291c.90092 0 1.83091-3.661823 1.83091-6.1321 0-1.220608-.20344-1.685601-.63937-1.685601-1.22061 0-1.83091 3.894319-1.83091 6.015852 0 1.511228.31968 1.801849.63937 1.801849z" id="at"/>
    </g>
  </g>
</svg>