<svg viewBox="0 0 612 727" xmlns="http://www.w3.org/2000/svg"><g stroke="#000" fill="none" fill-rule="evenodd"><path d="M141.42 216.855c8.398-3.55 17.663-5.558 27.795-6.022 15.198-.696 26.611 4.263 26.611-1.822 0-14.355-18.974-15.672-56.922-3.95M338.167 192.12c-9.893-3.28-22.596-4.306-38.108-3.081-23.268 1.837-50.37 17.348-55.972 13.414-5.602-3.933-5.643-8.7 8.381-14.525 14.024-5.825 41.104-12.984 54.301-12.984 8.798 0 20.163 4.328 34.096 12.984" stroke-width="3"/><path stroke-width="5" d="M390.687 216.205h-37.011l-12.788 11.24"/><path d="M300.385 297.35c-28.656 8.613-51.078-4.334-60.837-21.965-16.71-30.188.964-51.346 12.894-59.763 14.593-10.296 43.704-12.23 87.334-5.804 5.987 48.662-7.143 77.84-39.39 87.532z" stroke-width="5"/><path d="M300.681 206.21c16.648 1.912 27.495 6.169 32.54 12.772 5.046 6.603 6.729 19.307 5.049 38.112M194.01 244.105c4.91-4.371 11.24-6.74 18.99-7.108 7.749-.366 14.617 1.402 20.603 5.306M107.808 237.95c22.39-11.006 39.311-16.116 50.764-15.33 17.18 1.178 33.142 11.147 35.76 23.034 2.618 11.888 4.537 59.053-42.037 59.053-31.05 0-45.878-22.252-44.487-66.756z" stroke-width="5"/><path d="M135.97 226.17c-10.9 6.047-17.862 11.538-20.887 16.474-3.024 4.935-4.86 12.833-5.51 23.694M102.13 242.296h6.128M115.928 242.01l25.507-.314" stroke-width="5"/><path d="M141.178 215.203c.678 14.003.678 24.183 0 30.538-1.59 14.902-6.632 28.073-4.715 41.147 4.715 32.158 23.417 58.204 33.856 79.019 12.842 25.606 23.237 40.76 36.563 48.759 36.235 21.752 80.415-4.123 110.422-25.836 20.004-14.475 36.307-43.565 48.908-87.27" stroke-width="3"/><path d="M271.337 344.166c-4.285-.415-7.317-.948-9.094-1.598-15.602-5.712-24.28-10.148-27.107-10.148-4.963 0-12.087 6.208-13.771 6.208-1.685 0-11.723-5.245-16.693-3.855-2.204.617-5.428 4.108-9.622 7.795-1.409 1.238-3.766 3.038-7.072 5.4" stroke-width="2"/><path d="M185.198 350.328c2.932 1.603 6.802 2.313 11.61 2.13 7.21-.275 11.823-3.98 16.018-3.98 4.196 0 2.792 1.003 9.643 1.003 6.852 0 7.892-3.166 16.434-3.166 8.542 0 10.338 3.166 21.98 3.166 7.762 0 15.361-2.174 22.798-6.523" stroke-width="2"/><path d="M205.35 350.488c8.52 2.673 15.305 3.898 20.352 3.675 5.048-.222 13.35-2.113 24.908-5.672M199.155 362.83c9.049 9.159 18.705 13.738 28.969 13.738 10.263 0 19.92-2.809 28.968-8.427M199.926 223.21c3.173 20.58 4.292 35.755 3.357 45.522-1.402 14.65-14.295 27.45-9.348 39.633 3.299 8.121 10.36 9.552 21.187 4.292" stroke-width="2"/><path d="M202.677 309.683c1.48-1.6 3.53-2.4 6.152-2.4 3.934 0 4.004 7.02 11.65 7.02 4.665 0 6.475-3.734 9.814-7.02 2.133-2.099 5.584-4.298 8.54-4.298 5.053 0 7.58 2.233 7.58 6.698M252.133 292.821c3.345 4.663 4.53 8.919 3.556 12.767-.974 3.848-3.3 6.781-6.98 8.8" stroke-width="2"/><path d="M233.51 251.09l5.278 1.736c1.562-3.961 2.875-6.015 3.94-6.162 1.596-.221 2.49 3.937 2.558 5.108.068 1.17-1.197 1.054-.666 2.487.532 1.434 4.728 5.233 3.712 6.127-1.016.894-5.595-1.91-7.322-3.278-1.152-.912-1.892-2.34-2.222-4.282M194.24 266.488c-2.068-1.228-3.102-2.4-3.102-3.518 0-1.117 1.378-2.118 4.132-3.003" stroke-width="3"/><g stroke-width="1.5"><path d="M254.549 221.078c4.332-11.773 11.255-18.259 20.766-19.456 9.512-1.197 22.786 2.747 39.825 11.83"/><path d="M255.122 230.491c0-2.635 1.875-3.5 4.916-7.19 3.041-3.69 8.574-13.314 19.701-14.571 7.072-.8 15.672 3.854 21.18 7.224 3.16 1.934 5.466 2.72 5.466 3.657 0 2.568-6.72 9.908-17.696 13.042-6.124 1.748-15.797 1.48-25.662.565-1.281-.118-2.714-.118-4.3 0-2.404-.06-3.605-.97-3.605-2.727z"/><path d="M259.637 223.613c-.96 3.058-1.122 5.246-.484 6.565.639 1.318 2.493 2.401 5.563 3.25M291.711 231.434c1.202.652 2.052 1.23 2.549 1.731.496.502.789 1.08.877 1.731M265.837 232.789l-.78 3.755M270.647 233.579l-.278 3.265M296.11 229.443c1.128.71 1.874 1.272 2.237 1.69.362.416.595.98.7 1.69M298.144 228.427c1.297.54 2.205 1.088 2.725 1.642.52.553.924 1.378 1.212 2.474M300.23 227.534c1.01.448 1.755.908 2.236 1.38.48.473 1.226 1.476 2.236 3.011M301.931 225.62c1.589.52 2.653.973 3.193 1.358.54.386.956.838 1.245 1.357M304.215 223.833c1.27.512 2.117.91 2.544 1.196.427.285.804.653 1.13 1.105M305.26 221.68c2.138 1.09 3.808 1.552 5.009 1.388 1.2-.163 2.82-1.25 4.857-3.26M306.167 220.817h9.804M306.004 219.719c1.551-.253 2.684-.557 3.398-.912s1.483-.998 2.308-1.928M303.137 217.45c1.691-.2 2.893-.485 3.605-.856.713-.37 1.571-1.158 2.576-2.361M301.164 216.09c2.313-.706 4.085-1.474 5.315-2.306 1.23-.83 2.847-2.353 4.852-4.566M298.698 214.4c2.391-1.358 4.019-2.456 4.884-3.294.865-.839 2.337-2.747 4.418-5.724M296.397 213.376c1.513-1.234 2.613-2.28 3.3-3.137.687-.858 1.63-2.728 2.826-5.61M295.216 212.904c1.34-1.507 2.367-2.887 3.08-4.14a19.133 19.133 0 0 0 1.725-4.14M292.646 211.754c1.301-1.121 2.229-2.292 2.784-3.512.555-1.22 1.005-3.032 1.35-5.435M289.776 210.207c1.32-1.29 2.238-2.316 2.756-3.08.517-.763 1.158-2.431 1.92-5.003M288.816 209.966c.679-1.836 1.094-3.21 1.245-4.124.15-.914.276-2.794.374-5.64M284.477 208.758v-3.51-4.55M280.697 208.918c.277-1.935.416-3.294.416-4.075 0-.78-.262-2.408-.787-4.882M276.79 209.174l-1.101-7.507M269.353 204.174c.741 1.743 1.366 2.96 1.875 3.65.509.692 1.49 1.656 2.946 2.893M270.449 212.813c-1.324-.771-2.288-1.477-2.89-2.118-.604-.64-1.224-1.83-1.863-3.567M268.283 214.195c-1.357-.5-2.312-1.085-2.865-1.753-.554-.668-1.083-1.876-1.588-3.623M265.844 216.684c-1.15-.451-1.951-.846-2.405-1.184-.453-.339-1.018-.965-1.694-1.878M281.731 208.669c-5.125 3.413-7.099 7.49-5.92 12.23 1.767 7.11 9.815 10.834 16.183 7.856 2.815-1.316 5.229-4.459 5.654-8.42.284-2.64-.073-4.822-1.069-6.547"/><path d="M290.82 215.55c-2.182-2.128-5.928-1.674-7.329 0-1.4 1.674-1.273 4.78 0 6.554 1.274 1.775 5.16 2.242 7.153.742 1.993-1.5 2.356-5.168.175-7.296zM196.651 227.732c-7.154-3.618-13.614-4.727-19.379-3.33-8.647 2.096-15.656 9.568-15.656 13.728 0 2.405 9.16 6.186 17.334 4.913 6.93-1.079 11.517-3.727 13.474-4.279 4.8-1.354 5.748 0 6.519-2.085.298-.808.4-4.363-1.483-7.52-2.975-4.987-9.484-10.197-17.192-11.258-8.852-1.219-16.814 3.887-23.887 15.317"/><path d="M164.861 231.924c-.589 2.559-.883 4.494-.883 5.806 0 1.311.589 2.57 1.767 3.773M184.903 223.648c-4.49 2.548-6.536 5.895-6.138 10.042.398 4.147 2.65 6.753 6.759 7.816"/><path d="M188.316 227.643c-2.434-.016-4.793 2.213-4.793 4.528 0 2.315 2.265 4.646 4.793 4.663 2.527.017 5.168-2.298 5.168-4.595 0-2.298-2.735-4.58-5.168-4.596zM179.65 243.321v3.447M183.92 242.227v2.807M186.702 240.62v3.622M172.586 242.885c-1.672 1.367-2.717 2.333-3.135 2.899-.419.565-.823 1.342-1.214 2.328M169.05 242.68c-.993-.086-2.002.296-3.028 1.147-1.026.851-1.804 1.808-2.334 2.87M161.527 244.496a6.853 6.853 0 0 1 1.592-1.588c.643-.467 1.571-.996 2.785-1.588M164.091 240.391c-2.34.916-3.93 1.409-4.77 1.479-.84.07-2.431-.156-4.772-.679M162.095 238.768c-1.861.567-3.294.85-4.298.85-1.003 0-2.436-.283-4.298-.85M161.608 236.72c-2.12.536-3.605.775-4.453.716-.847-.058-2.332-.503-4.453-1.333M162.697 235.707l-9.295-.872M162.109 235.481c-2.22-.621-3.815-1.242-4.786-1.864-.971-.621-2.033-1.7-3.186-3.237M163.945 233.992c-2.41-.564-4.018-1.123-4.825-1.676-.808-.553-1.71-1.715-2.706-3.484M157.521 225.34c.903 2.35 1.766 3.893 2.587 4.63.822.737 2.453 1.43 4.894 2.077M160.191 223.547c.783 2.23 1.552 3.76 2.308 4.588.756.83 2.139 1.659 4.148 2.49M162.944 222.187c1.138 2.075 2.042 3.492 2.713 4.251.67.759 1.575 1.388 2.713 1.89M170.655 226.63c-1.289-.853-2.215-1.532-2.78-2.036-.565-.505-1.107-1.6-1.625-3.287M168.305 219.33c.433 1.5.91 2.608 1.435 3.326.523.718 1.663 1.827 3.418 3.326M171.23 220.536c1.031 1.418 1.87 2.39 2.518 2.916.648.526 1.487.916 2.518 1.17M179.822 224.215c-1.631-.726-2.754-1.335-3.368-1.828-.614-.492-1.01-1.102-1.19-1.828M180.853 220.672l3.778 3.423"/></g><g stroke-width="2"><path d="M329.198 76.677c25.341-23.475 23.627-43.93-5.14-61.367-43.152-26.155-96.067-10.451-110.173 0-9.404 6.968-23.596 19.79-42.574 38.47C97.4 114.176 56.843 169.302 49.639 219.155c-10.807 74.78 19.84 83.246 7.807 121.602-12.034 38.355-45.218 58.018-51.311 89.79-4.063 21.18 2.782 44.737 20.535 70.67-7.756-32.27-7.351-57.07 1.215-74.397 12.85-25.99 38.793-35.39 56.258-96.031 7.55-26.215-3.685-70.66-5.926-111.634-.81-14.81 1.165-35.579 5.926-62.305"/><path d="M302.667 72.234c-17.075-17.575-37.935-27.852-62.582-30.831-24.646-2.979-47.592 2.072-68.835 15.154M106.333 124.472c-10.978 33.754-17.382 59.524-19.211 77.309-1.83 17.785-1.83 54.279 0 109.481"/><path d="M56.432 393.547c-1.02 19.305-1.02 31.945 0 37.923 1.02 5.977 4.877 16.562 11.572 31.757-1.906-24.962-.387-49.261 4.557-72.898 7.417-35.455 23.792-67.243 27.657-95.498 2.577-18.837 1.506-46.074-3.213-81.713M239.333 69.423c-37.48-2.7-70.124 10.002-97.934 38.104-27.81 28.102-42.138 63.299-42.982 105.59"/><path d="M288.417 91.23c-.981 4.453-4.086 7.314-9.315 8.584-7.843 1.905-68.702-9.905-117.863 33.59-32.774 28.997-50.02 69.287-51.739 120.871"/><path d="M115.833 202.037c16.522-25.44 30.534-43.911 42.034-55.414 11.5-11.504 30.739-26.275 57.716-44.313"/><path d="M133.25 178.293c-5.195 10.34-8.209 18.333-9.043 23.979-.834 5.646-1.514 18.232-2.04 37.756M65.429 457.166c2.656 16.57 6.172 28.92 10.548 37.05 1.647 3.06 6.429 11.654 14.346 25.782l3.885-2.44c-9.76-52.397-12.965-91.954-9.614-118.671 5.526-44.068 16.467-81.718 32.823-112.953M228.25 2.583c28.91 1.392 48.533 3.286 58.868 5.68 23.901 5.535 37.1 15.88 41.959 24.54 4.743 8.453 6.276 17.903 4.6 28.35M350.167 51.252c3.618-3.953 12.296-5.929 26.032-5.929 20.604 0 54.27 37.475 65.054 64.243 7.188 17.846 12.55 55.602 16.085 113.268"/><path d="M337.5 69.432c1.517-.813 5.918-.266 13.203 1.641 4.729 1.238 20.164 9.013 39.804 29.742 7.077 7.469 18.436 23.27 34.076 47.401M366 112.81c-18.562-22.83-33.064-34.244-43.505-34.244-15.662 0-40.095 23.08-45.276 41.424-3.454 12.229-.816 26.387 7.914 42.473"/><path d="M310.583 81.731c-9.74 10.593-16.023 21.812-18.847 33.657-2.825 11.846-2.202 25.427 1.867 40.743"/><path d="M305.606 86.48c-11.377 15.561-13.812 34.49-7.304 56.786 9.763 33.443 54.658 52.94 72.352 79.097C382.45 239.8 390.4 262.046 394.5 289.1M103.646 358.751c-6.38 39.69-9.013 73.655-7.9 101.896.48 12.199 2.761 42.644 5.364 54.447M113.877 398.325l4.978 109.97 22.244-11.286-8.302-61.437"/><path d="M113.246 300.181c-7.239 22.247-9.852 43.308-7.84 63.185 3.02 29.816 9.46 36.854 19.499 51.957 16.92 25.455 39.598 43.196 49.655 52.078"/><path d="M111.083 342.921c2.421 6.85 7.25 13.554 14.488 20.11 10.857 9.834 44.995 30.583 69.08 62.882 5.239 7.026 11.357 16.09 18.355 27.19M134.833 192.54c-2.323 6.438-3.765 11.715-4.328 15.829-.562 4.114-.562 9.391 0 15.83M139.583 317.594c.8 17.311 2.997 29.864 6.595 37.657 3.598 7.794 10.9 15.82 21.905 24.079M333.499 145.448c7.76 20.101 12.457 36.214 14.093 48.34 6.893 51.077 4.791 94.405 29.484 126.152s39.625 33.976 69.656 37.537c8.587 1.018 23.287 2.074 44.103 3.169M338.054 101.566c17.826 17.766 30.736 34.435 38.73 50.007 11.993 23.358 5.892 41.583 49.813 97.296 43.92 55.714 81.936 64.532 94.742 84.404 8.536 13.247 8.536 37.524 0 72.83"/><path d="M355.397 110.146c25.027 17.745 42.208 31.627 51.542 41.648 16.597 17.817 27.263 41.28 37.557 56.192 13.287 19.247 24.303 28.504 29.4 37.517 12.38 21.887 21.218 44.705 26.518 68.455M474.65 367.53c5.03 10.971 10.741 19.102 17.131 24.39 10.683 8.84 55.497 22.511 68.68 32.662 8.788 6.767 13.182 14.299 13.182 22.594M349.52 359.5c-8.686 5.141-17.508 14.692-26.464 28.652-5.125 7.988-18.417 40.135-18.466 84.046-.01 8.55 3.598 28.373 2.625 48.56-1.114 23.101-8.749 37.127-4.85 52.337 2.6 10.14 7.77 18.507 15.513 25.103"/><path d="M332.927 430.23c.028 15.62-1.431 27.85-4.378 36.693-13.567 40.706-25.708 55.074-27.521 69.477-1.208 9.603-1.208 18.51 0 26.72M418.343 368.439c-10.656 43.789-14.681 78.373-12.075 103.754 3.908 38.07 58.438 95.78 61.871 120.04 2.29 16.173 1.145 32.775-3.433 49.806"/><path d="M450.512 357.8c2.098 6.052 3.147 13.084 3.147 21.095 0 9.02-5.954 44.272-8.119 68.792-5.432 61.54 69.794 91.137 69.794 151.464 0 9.797-3.783 24.669-35.196 49.881-31.412 25.213-85.434 39.227-101.392 50.03-10.638 7.203-13.351 15.42-8.139 24.65M455.465 329.166c36.624 18.684 57.46 36.812 62.507 54.383 5.047 17.57 5.047 33.804 0 48.699"/><path d="M487.085 399.347c8.014 14.544 15.27 25.107 21.769 31.69 31.282 31.686 59.6 34.494 59.6 81.357 0 31.242-16.758 53.409-50.275 66.5 22.29-17.98 33.957-33.417 35-46.308 1.043-12.892-8.013-29.722-27.17-50.49"/><path d="M498.481 417.842c6.538 4.163 11.842 7.071 15.913 8.725 15.571 6.328 31.454 11.872 39.25 20.051 10.855 11.387 14.264 24.663 10.23 39.827M395.282 340.32c-16.589 0-28.999 16.411-37.23 49.232-8.233 32.821-1.76 71.68 19.42 116.576"/><path d="M405.852 362.808c-10.594 26.695-19.449 56.503-26.564 89.424-10.671 49.38 14.994 104.982 15.21 154.589.095 21.679-4.975 41.513-15.21 59.501M343.164 465.957c.04 14.769-.948 25.427-2.966 31.975-5.892 19.12-17.904 38.577-22.852 52.535-9.837 27.75-10.453 42.432-10.453 50.213 0 13.706 6.996 28.752 20.988 45.138M333.417 638.496c-12.579 19.22-20.297 33.604-23.154 43.15-2.857 9.547-2.857 24.28 0 44.2"/><path d="M395.865 435.374c-5.974 34.513-7.997 59.094-6.07 73.744 6.534 49.673 31.777 46.745 21.927 103.82-9.85 57.074-52.153 83.354-57.646 97.135-3.661 9.187-4.42 14.298-2.278 15.334M362.56 548.861c.592 25.24-.437 44.337-3.085 57.29-6.506 31.82-22.296 65.184-23.48 79.905-1.116 13.855 1.237 27.093 7.058 39.713"/><path d="M392.008 578.239c-8.028 25.399-13.977 43.06-17.848 52.982-8.893 22.8-18.03 38.58-22.08 51.965-6.693 22.125-8.2 36.124-4.523 41.998M424.99 490.78c2.53 13.217 10.307 26.093 23.329 38.63 19.533 18.806 33.786 19.85 49.679 43.281 10.595 15.621 7.656 33.06-8.818 52.318M470.15 365.048c4.246 29.91 9.514 52.291 15.804 67.143 4.566 10.783 27.497 36.562 45.14 67.74 4.437 7.844 8.083 19.46 10.935 34.851M460.034 412.836c4.696 15.081 8.434 26.18 11.215 33.298 7.542 19.302 16.246 37.158 20.402 52.178 6.454 23.328 8.473 40.222 6.056 50.681M455.935 367.6c3.09 27.417 7.57 47.64 13.44 60.666 4.353 9.662 20.568 31.405 39.091 61.205 4.3 6.917 10.016 17.843 17.15 32.777"/></g><g><path d="M209.864 467.692L45.347 539.655c-3.748 0-8.89 2.773-15.428 8.32-9.806 8.322-32.039 82.357-27.253 89.145C7.453 643.91 51.468 658.324 72 675.471c20.53 17.148 17.63 25.452 36.169 38.351 8.786 6.113 78.924 3.023 208.46-12.475 35.125-4.202 97.478-12.827 187.057-25.876 31.973-1.474 54.835-3.874 68.586-7.202 13.75-3.327 26.327-9.502 37.729-18.524-5.416-81.936-10.985-136.313-16.709-163.132-8.087-37.895-21.02-75.353-34.314-78.261-8.863-1.939-17.226-.97-25.09 2.908" stroke-width="3"/><path d="M41.411 540.35c-.26 4.766.295 8.94 1.665 12.52s3.511 6.888 6.424 9.922M199.564 472.593c-28.365 40.298-52.13 67.418-71.296 81.36-19.166 13.94-45.422 27.05-78.768 39.326 30.7 23.43 50.894 38.534 60.584 45.316 12.406 8.681 25.734 11.632 26.657 14.496 2.006 6.22 3.009 27.329 3.009 63.325" stroke-width="3"/><path stroke-width="3" d="M62.167 602.386l19 34.062v46.71M63.997 587.515c29.345 26.135 46.103 39.867 50.275 41.196 2.808.895 13.733 2.543 21.36 4.472 5.085 1.286 11.184 3.346 18.296 6.181.096 40.179.096 61.418 0 63.717-.096 2.3-1.44 4.633-4.029 7"/><path d="M93.733 585.51c-4.28 4.957 1.267 18.193 9.43 25.25 8.162 7.058 21.487 9.879 25.637 5.073 4.15-4.806-1.083-16.151-9.664-23.57-8.58-7.42-21.123-11.709-25.403-6.752z" stroke-width="3"/><path d="M96.53 589.875c-3.21 4.055.95 14.884 7.07 20.659 6.123 5.774 16.116 8.082 19.23 4.15 3.112-3.933-.813-13.215-7.249-19.285-6.435-6.071-15.842-9.58-19.052-5.524zM200.042 472.286c-1.14 62.897-5.8 112.195-13.983 147.894-8.183 35.7-16.23 67.25-24.142 94.652M300.737 556.184c-4.392 13.003-2.569 124.45 0 134.801 1.713 6.901 3.845 10.627 6.396 11.177" stroke-width="3"/><path d="M196.75 543.796c.483-.04.764.047.845.261 6.853 18.106 18.474 28.376 34.863 30.811 16.68 2.478 39.303-3.674 67.87-18.454" stroke-width="5"/><path d="M193.583 577.046c1.123.146 1.957.363 2.502.65 14.622 7.722 26.789 12.11 36.5 13.165 10.254 1.113 31.56.107 63.915-3.019M298.083 608.72c-31.587-.313-53.405-1.001-65.454-2.064-12.05-1.064-26.12-3.543-42.212-7.438M185.667 624.558a3.4 3.4 0 0 1 .949.367c4.472 2.505 11.005 5.203 31.25 8.16 13.498 1.972 40.237.956 80.217-3.048M179.333 651.482c23.894 4.224 42.653 6.335 56.278 6.335s34.45-2.111 62.472-6.335M171.417 678.11c6.873 2.309 20.93 3.464 42.17 3.464 21.24 0 48.878-3.696 82.913-11.087M179.333 699.97c15.562.812 32.737.812 51.525 0 18.79-.812 40.67-3.777 65.642-8.894" stroke-width="10"/><path d="M202.852 478.669c6.908-8.737 11.006-18.099 12.293-28.086 1.287-9.988 2.113-20.604 2.48-31.85" stroke-width="3"/><path d="M216.582 431.134c1.205.147 1.93.245 2.175.293 17.839 3.534 30.755 5.008 41.939 4.421 11.095-.582 26.825-3.662 47.191-9.24.39-.107.907-.107 1.553 0" stroke-width="13"/></g></g></svg>