<svg width="85" height="85" viewBox="0 0 85 85" fill="none" xmlns="http://www.w3.org/2000/svg">
<g style="mix-blend-mode:multiply">
<path d="M30.5 49H24.5V74.4477C24.5 75.1289 24.2682 75.7898 23.8426 76.3217L23.7255 76.4681C22.092 78.5099 18.9709 78.4612 17.402 76.3694L16 74.5L11.5 79L12.1283 79.6283C13.6992 81.1992 15.513 82.5065 17.5 83.5H1V1H83.5V62L78.5 49H71.5L59 83.5H50.5L51.0726 83.2397C54.2147 81.8115 56.6202 79.1395 57.7116 75.8652C58.7977 72.6068 57.8494 69.0144 55.2964 66.7167L54.5 66L53.82 65.456C52.61 64.488 51.3012 63.6506 49.9154 62.9577L44.906 60.453C43.375 59.6875 42.8816 57.7406 43.8632 56.3383C44.7624 55.0538 46.5403 54.7566 47.8083 55.6788L51 58L56 53.5L54.7257 52.2257C50.8331 48.3331 44.711 47.788 40.1919 50.9317L39.4672 51.4358C37.5928 52.7398 36.417 54.8287 36.2745 57.1075L36.2212 57.9611C36.0787 60.2415 36.7742 62.4954 38.1769 64.2989C39.049 65.4202 40.1492 66.3437 41.4046 67.0083L48 70.5L48.7674 70.9063C51.7145 72.4665 51.3892 76.7888 48.2418 77.8904L48.1277 77.9303C47.0938 78.2922 45.9538 78.1879 45.0027 77.6444C43.6735 76.8849 42.4515 75.9515 41.3689 74.8689L40 73.5L35 77.5C36.98 79.81 39.4018 81.7009 42.1231 83.0616L43 83.5H25C28.5145 82.6214 30.9612 79.4383 30.9063 75.816L30.5 49Z" fill="#FFFF00" stroke="#FFFF00"/>
<path d="M79.5 70.5H71L75 57.5L79.5 70.5Z" fill="#FFFF00" stroke="#FFFF00"/>
<path d="M69 76.5L66.5 84H84L81.5 76.5H69Z" fill="#FFFF00" stroke="#FFFF00"/>
</g>
</svg>
