<svg viewBox="0 0 24 21" xmlns="http://www.w3.org/2000/svg">
  <g id="Page-1" fill="none" fill-rule="evenodd">
    <g id="pt2" transform="translate(-1478 -928)" fill="black" fill-rule="nonzero">
      <path d="M1501.88524 930.793899c-.88496.398831-1.82992.670529-2.82488.794587 1.01396-.626442 1.79393-1.61378 2.16291-2.791819-.95096.569027-2.00492.983237-3.12687 1.213924-.89596-.983237-2.17291-1.598401-3.59085-1.598401-2.71689 0-4.91979 2.258676-4.91979 5.041267 0 .399857.04499.784334.12699 1.152407-4.08983-.197878-7.71468-2.211514-10.14058-5.255549-.42698.740247-.66597 1.600451-.66597 2.53755 0 1.753217.86996 3.294203 2.18791 4.199519-.80697-.026658-1.56593-.254268-2.22791-.631569v.062542c0 2.445276 1.69293 4.484544 3.94584 4.948993-.41298.113805-.84897.175321-1.29595.175321-.31398 0-.61497-.030758-.91596-.088173.63097 2.002358 2.4449 3.462347 4.60381 3.503358-1.67993 1.352335-3.80884 2.158199-6.10175 2.158199-.38998 0-.77896-.023581-1.16995-.068693 2.18891 1.429231 4.7678 2.264828 7.55669 2.264828 9.05362 0 13.99841-7.685446 13.99841-14.339468 0-.214282 0-.430614-.015-.645922.96096-.706413 1.79993-1.599426 2.4599-2.612395l-.047-.020506z" id="twitter"/>
    </g>
  </g>
</svg>